<?xml version="1.0" encoding="UTF-8" standalone="no"?>
<!-- Created with Inkscape (http://www.inkscape.org/) -->

<svg
   xmlns:dc="http://purl.org/dc/elements/1.1/"
   xmlns:cc="http://creativecommons.org/ns#"
   xmlns:rdf="http://www.w3.org/1999/02/22-rdf-syntax-ns#"
   xmlns:svg="http://www.w3.org/2000/svg"
   xmlns="http://www.w3.org/2000/svg"
   xmlns:sodipodi="http://sodipodi.sourceforge.net/DTD/sodipodi-0.dtd"
   xmlns:inkscape="http://www.inkscape.org/namespaces/inkscape"
   width="100"
   height="100"
   id="svg4172"
   version="1.1"
   inkscape:version="0.48.4 r9939"
   sodipodi:docname="atom.svg">
  <defs
     id="defs4174" />
  <sodipodi:namedview
     id="base"
     pagecolor="#ffffff"
     bordercolor="#666666"
     borderopacity="1.0"
     inkscape:pageopacity="0.0"
     inkscape:pageshadow="2"
     inkscape:zoom="2.8"
     inkscape:cx="20.790403"
     inkscape:cy="59.667619"
     inkscape:document-units="px"
     inkscape:current-layer="layer1"
     showgrid="false"
     inkscape:window-width="942"
     inkscape:window-height="987"
     inkscape:window-x="0"
     inkscape:window-y="0"
     inkscape:window-maximized="0" />
  <metadata
     id="metadata4177">
    <rdf:RDF>
      <cc:Work
         rdf:about="">
        <dc:format>image/svg+xml</dc:format>
        <dc:type
           rdf:resource="http://purl.org/dc/dcmitype/StillImage" />
        <dc:title></dc:title>
      </cc:Work>
    </rdf:RDF>
  </metadata>
  <g
     inkscape:label="Layer 1"
     inkscape:groupmode="layer"
     id="layer1"
     transform="translate(0,-952.3622)">
    <path
       style="fill:#ffffff;fill-opacity:1;stroke:none"
       d="m 46.44226,1045.4041 c -3.177691,-1.7358 -7.56706,-8.7454 -8.666657,-13.8401 -0.290863,-1.3477 -0.862943,-2.6568 -1.271289,-2.9091 -0.408347,-0.2524 -3.591137,-0.054 -7.072856,0.4397 -14.320584,2.0328 -21.0431762,-4.1982 -15.797219,-14.6421 0.657378,-1.3086 2.690432,-4.3084 4.517898,-6.6659 1.827467,-2.3576 3.32267,-4.5233 3.32267,-4.8129 0,-0.2894 -1.365175,-2.1569 -3.033713,-4.14975 -1.668545,-1.99293 -3.915699,-5.54996 -4.99368,-7.90457 -2.386094,-5.21191 -2.047081,-8.25086 1.275792,-11.4363 2.209702,-2.11831 2.60645,-2.21315 9.258802,-2.21315 3.822593,0 8.098171,0.17024 9.501289,0.3783 2.921139,0.43316 3.112912,0.21136 5.479955,-6.33815 2.170149,-6.00472 7.678082,-11.82 11.195278,-11.82 5.179403,0 9.083873,4.04861 12.893713,13.36969 1.65913,4.05922 2.41631,5.11925 3.53231,4.94518 0.78128,-0.12187 4.51208,-0.42058 8.29066,-0.66383 5.63885,-0.36298 7.37372,-0.20328 9.67984,0.89105 3.09666,1.46945 5.01281,4.43282 5.01281,7.75242 0,2.9287 -3.20647,9.15382 -6.84294,13.2851 -1.646,1.86991 -2.99272,3.62701 -2.99272,3.90461 0,0.2777 1.33748,2.098 2.97218,4.0452 3.61849,4.3103 6.86348,10.6147 6.86348,13.3344 0,7.4069 -6.89528,10.309 -20.10719,8.4626 l -4.5971,-0.6424 -1.61747,4.4332 c -4.20545,11.5265 -10.43905,16.2736 -16.803843,12.7968 z m 8.849093,-8.1744 c 2.44283,-2.5707 5.52611,-8.0805 5.52611,-9.8752 0,-0.5898 -2.25692,-1.931 -5.179,-3.0773 l -5.17901,-2.032 -5.088372,2.283 c -5.71076,2.5623 -5.759417,2.7535 -2.255446,8.8632 3.799206,6.6245 8.207478,8.0142 12.175718,3.8383 z M 34.556436,1019.639 c -0.08727,-2.4968 -0.352298,-5.2205 -0.588937,-6.0527 -0.467247,-1.6433 -7.322856,-7.1886 -8.884244,-7.1862 -1.746837,0 -6.029989,7.2619 -6.442119,10.9183 -0.645862,5.7301 1.619231,7.2582 10.399566,7.0164 l 5.674421,-0.1563 -0.158687,-4.5395 z m 45.758157,3.7441 c 2.69726,-1.8892 3.35794,-3.7546 2.48199,-7.0075 -0.95694,-3.5539 -5.12293,-9.9769 -6.47098,-9.9769 -0.54683,0 -2.84879,1.5106 -5.11548,3.3571 -4.06487,3.3112 -4.12825,3.4255 -4.63331,8.3552 -0.28164,2.749 -0.31076,5.3239 -0.0647,5.722 0.76638,1.2399 11.90829,0.8769 13.80248,-0.4499 z m -36.450109,-1.5596 c 1.001649,-0.2514 1.820839,-0.8457 1.820415,-1.3208 -7.56e-4,-0.9964 -7.52258,-5.4227 -7.64887,-4.5012 -0.469373,3.4249 1.203514,7.355 2.86012,6.7193 0.630935,-0.2421 1.966687,-0.6459 2.968335,-0.8973 z m 18.267049,0.2744 c 0.92089,-1.1725 1.78962,-5.5341 1.21643,-6.1072 -0.52833,-0.5284 -7.80086,3.4283 -7.81573,4.2523 -0.01,0.5388 4.17988,2.6961 5.38174,2.771 0.26114,0.016 0.80904,-0.396 1.21756,-0.9161 z m -3.90344,-7.1876 5.99402,-3.5938 0.22249,-6.8093 c 0.12237,-3.7452 0.0498,-7.49959 -0.16126,-8.34312 -0.36935,-1.47625 -8.85064,-7.12936 -12.37353,-8.24748 -1.17224,-0.37206 -3.196097,0.27905 -6.872691,2.21104 -8.302419,4.36279 -8.430525,4.55656 -8.430525,12.75116 0,4.4441 0.34648,7.4686 0.945737,8.2556 1.385277,1.8192 11.249896,7.3697 13.097859,7.3697 0.87114,0 4.28119,-1.6172 7.5779,-3.5938 z m -12.234823,-2.8916 c -3.266477,-1.6116 -5.903138,-6.5082 -5.347673,-9.9312 1.144251,-7.05119 8.226519,-11.23156 13.967576,-8.24448 5.31824,2.76707 7.4091,8.20758 5.19281,13.51188 -2.14298,5.1288 -8.51182,7.2793 -13.812713,4.6638 z m -12.413031,-9.0693 c 0,-5.29763 -0.1906,-5.42277 -3.5938,-2.359 -0.93628,0.8428 -1.702327,1.8801 -1.702327,2.3049 0,0.9311 3.812251,5.0165 4.681088,5.0165 0.338271,0 0.615039,-2.2331 0.615039,-4.9624 z m 37.220634,2.9294 c 2.55347,-2.4464 2.60594,-3.0288 0.47696,-5.295 -2.77438,-2.95314 -3.65107,-2.28364 -3.65107,2.7885 0,2.4967 0.23673,4.5395 0.52605,4.5395 0.28932,0 1.48095,-0.9148 2.64806,-2.033 z m -40.688765,-9.3343 c 4.032842,-3.04482 4.032842,-3.04482 4.552725,-8.32086 0.285945,-2.90182 0.309021,-5.61724 0.0513,-6.03426 -0.257724,-0.41701 -2.916879,-0.75693 -5.909221,-0.75537 -4.154274,0.002 -6.043735,0.37051 -7.991492,1.55797 -2.4387,1.48677 -2.535324,1.71694 -2.197348,5.2343 0.388841,4.04682 4.492024,11.36304 6.372731,11.36304 0.598667,0 2.903254,-1.37019 5.121317,-3.04482 z m 49.662925,-0.54898 c 3.46338,-5.46079 4.25238,-8.75201 2.67515,-11.15917 -1.68814,-2.57643 -4.08018,-3.40766 -9.76569,-3.39359 -6.52,0.0161 -6.74147,0.24811 -6.11109,6.401 0.39702,3.87521 0.9194,5.4754 2.11436,6.4772 0.87288,0.73177 2.60846,2.20576 3.85684,3.2755 3.27425,2.80584 4.62529,2.50664 7.23043,-1.60094 z m -37.554338,-7.46098 c 1.944208,-1.08663 3.414905,-2.33575 3.268217,-2.77582 -0.146687,-0.44005 -1.522228,-1.23478 -3.056758,-1.76604 -2.46179,-0.8523 -2.870538,-0.81502 -3.47419,0.3169 -0.915292,1.71627 -1.316807,6.20067 -0.555186,6.20067 0.155646,0 1.873709,-0.88907 3.817917,-1.97571 z m 21.180458,-0.8615 c -0.76995,-4.27307 -1.42606,-4.78831 -4.66816,-3.66587 -1.5115,0.52329 -2.86032,1.28783 -2.99737,1.69897 -0.22894,0.68681 6.19203,4.7434 7.57504,4.7857 0.33094,0.0101 0.37167,-1.25834 0.0905,-2.8188 z m -7.50948,-5.94403 c 3.27602,-1.31148 4.92341,-2.38843 4.91869,-3.2155 -0.011,-1.92939 -4.24421,-8.85122 -6.49679,-10.6231 -2.64947,-2.08407 -4.986187,-2.01113 -7.660481,0.23914 -2.882811,2.42573 -6.697656,10.1438 -5.570792,11.27066 0.767424,0.76742 8.078689,4.08805 9.324093,4.2348 0.30772,0.0362 2.77609,-0.82143 5.48528,-1.906 z"
       id="path4085"
       inkscape:connector-curvature="0" />
  </g>
</svg>
