<?xml version="1.0" encoding="UTF-8" standalone="no"?>
<!-- Created with Inkscape (http://www.inkscape.org/) -->

<svg
   xmlns:dc="http://purl.org/dc/elements/1.1/"
   xmlns:cc="http://creativecommons.org/ns#"
   xmlns:rdf="http://www.w3.org/1999/02/22-rdf-syntax-ns#"
   xmlns:svg="http://www.w3.org/2000/svg"
   xmlns="http://www.w3.org/2000/svg"
   version="1.1"
   width="100"
   height="100"
   id="svg4172">
  <defs
     id="defs4174" />
  <metadata
     id="metadata4177">
    <rdf:RDF>
      <cc:Work
         rdf:about="">
        <dc:format>image/svg+xml</dc:format>
        <dc:type
           rdf:resource="http://purl.org/dc/dcmitype/StillImage" />
        <dc:title></dc:title>
      </cc:Work>
    </rdf:RDF>
  </metadata>
  <g
     transform="translate(0,-952.3622)"
     id="layer1">
    <path
       d="m 18.941564,1042.7307 c -1.667398,-0.6148 -3.155844,-2.668 -3.155844,-4.3532 0,-0.7864 5.053753,-10.7482 11.230568,-22.1373 l 11.230576,-20.70757 0.28061,-11.5818 0.280618,-11.58188 -2.635375,-0.25255 c -2.560021,-0.24532 -2.635374,-0.35405 -2.635374,-3.80286 l 0,-3.55032 16.962654,0 16.962662,0 0.251836,3.07553 c 0.272973,3.33364 -0.606229,4.38743 -3.677276,4.40752 l -1.847526,0.0121 0.275064,11.63719 0.275063,11.6371 11.237227,20.59814 c 6.180489,11.3289 11.237239,21.2906 11.237239,22.1373 0,0.8466 -0.50367,2.2284 -1.11928,3.0708 -1.07229,1.4671 -2.43901,1.5376 -32.54465,1.6797 -17.283942,0.082 -31.957899,-0.048 -32.608792,-0.2879 z m 14.3395,-20.3593 7.356928,-13.7928 11.265701,-0.014 11.2657,-0.014 -3.17885,-6.1741 -3.178858,-6.17417 0,-11.9719 0,-11.97197 -6.311688,0 -6.311688,0 0,12.23257 0,12.2325 -4.242252,8.08317 c -2.333234,4.4457 -7.099489,13.3199 -10.591667,19.7203 -5.216398,9.5607 -6.088957,11.6372 -4.889831,11.6372 1.08393,0 3.353045,-3.5498 8.816505,-13.7927 z"
       id="path4045"
       style="fill:#ffffff;fill-opacity:1;stroke:none" />
  </g>
</svg>
