<?xml version="1.0" encoding="UTF-8" standalone="no"?>
<!-- Created with Inkscape (http://www.inkscape.org/) -->

<svg
   xmlns:dc="http://purl.org/dc/elements/1.1/"
   xmlns:cc="http://creativecommons.org/ns#"
   xmlns:rdf="http://www.w3.org/1999/02/22-rdf-syntax-ns#"
   xmlns:svg="http://www.w3.org/2000/svg"
   xmlns="http://www.w3.org/2000/svg"
   version="1.1"
   width="100"
   height="100"
   id="svg4172">
  <defs
     id="defs4174" />
  <metadata
     id="metadata4177">
    <rdf:RDF>
      <cc:Work
         rdf:about="">
        <dc:format>image/svg+xml</dc:format>
        <dc:type
           rdf:resource="http://purl.org/dc/dcmitype/StillImage" />
        <dc:title></dc:title>
      </cc:Work>
    </rdf:RDF>
  </metadata>
  <g
     transform="translate(0,-952.3622)"
     id="layer1">
    <path
       d="m 51.615224,1039.9593 c -2.829742,-2.3809 -4.831425,-6.7652 -3.480296,-7.6228 0.506229,-0.3212 1.245811,-0.5879 1.643517,-0.5924 1.335127,-0.016 5.467074,2.8739 5.93218,4.1481 0.253195,0.6937 1.051318,2.0317 1.773617,2.9733 0.722298,0.9416 1.135797,1.9991 0.918896,2.3501 -0.802434,1.2983 -4.583611,0.5986 -6.787914,-1.2563 z m 9.371296,-6.0597 c 0,-0.3978 0.609589,-0.7231 1.354636,-0.7231 0.745048,0 3.917656,-0.6458 7.050241,-1.4351 3.132584,-0.7893 6.292162,-1.4402 7.021288,-1.4462 2.43515,-0.02 0.77166,1.7887 -2.107646,2.292 -1.55845,0.2725 -4.297828,0.8278 -6.087503,1.2339 -4.215437,0.9568 -7.231016,0.9895 -7.231016,0.079 z m -2.221477,-2.7424 c 3.310938,-2.3014 7.018453,-3.3031 15.237305,-4.1168 4.291003,-0.4247 4.539691,-0.3769 2.856765,0.548 -1.013861,0.5572 -3.779724,1.222 -6.146364,1.4772 -2.366632,0.2553 -6.014788,1.122 -8.10701,1.926 -4.580675,1.7601 -6.23751,1.8316 -3.840696,0.1656 z m -25.798711,-2.7378 c -1.386178,-0.7127 -2.35008,-1.7645 -2.35008,-2.5643 0,-1.9315 4.374779,-1.8673 6.146364,0.09 0.71984,0.7955 1.909154,1.4462 2.642929,1.4462 0.852059,0 1.334129,-0.5225 1.334129,-1.4462 0,-0.7954 0.325396,-1.4461 0.723102,-1.4461 0.397706,0 0.723101,-0.4414 0.723101,-0.9807 0,-0.7045 -1.648222,-1.1182 -5.85355,-1.4689 -8.585205,-0.716 -16.685331,-5.2462 -10.901921,-6.0972 0.863687,-0.1271 1.570338,-0.5206 1.570338,-0.8746 0,-0.3539 0.891512,-1.4702 1.981139,-2.4806 1.576716,-1.462 2.72477,-1.837 5.623916,-1.837 2.135196,0 4.311536,-0.4684 5.258698,-1.1319 2.316905,-1.6228 5.515255,-1.0989 5.806405,0.9511 0.127086,0.8949 0.545168,1.627 0.92907,1.627 0.383902,0 3.254536,-2.1151 6.379195,-4.7001 5.547057,-4.5893 8.730454,-5.8883 8.730454,-3.5625 0,0.695 0.492381,1.0421 1.265427,0.892 0.695986,-0.135 1.270757,-0.7537 1.277266,-1.3748 0.0065,-0.6211 0.901354,-2.1864 1.98853,-3.47843 1.087183,-1.29206 1.976692,-2.7147 1.976692,-3.16142 0,-0.56591 0.229679,-0.58261 0.757173,-0.055 0.527504,0.5275 0.517162,2.68856 -0.03406,7.12465 -0.551235,4.436 -0.561576,6.5971 -0.03406,7.1246 1.357725,1.3577 0.826484,4.0047 -1.050579,5.2346 -0.994265,0.6515 -1.807754,1.4724 -1.807754,1.8244 0,1.1749 2.673979,0.6584 4.653831,-0.899 1.625142,-1.2783 2.253922,-1.4034 3.713025,-0.7386 1.786185,0.8139 2.172125,1.9507 1.187767,3.4988 -0.500104,0.7866 -9.833639,3.1154 -12.491457,3.1168 -1.60859,7e-4 -4.294182,-2.6984 -4.294182,-4.3159 0,-0.8679 0.59462,-1.4522 1.626978,-1.5988 2.279882,-0.3238 2.031989,-1.6307 -0.361551,-1.9061 -1.093691,-0.1259 -1.988529,-0.4675 -1.988529,-0.7592 0,-1.3533 1.813372,-2.1155 4.13591,-1.7386 2.156998,0.3501 2.482531,0.2202 2.264768,-0.9032 -0.139877,-0.7217 -1.180984,-1.6209 -2.313585,-1.9982 -3.108346,-1.0356 -5.306814,0.2938 -6.244431,3.7758 -0.90452,3.3591 -2.016737,4.1229 -6.937132,4.7637 -5.849293,0.7617 -9.640572,-1.6193 -7.650987,-4.8052 0.460471,-0.7373 0.837222,-1.6705 0.837222,-2.0736 0,-1.3841 -1.085954,-0.7214 -2.292356,1.399 -1.036139,1.8212 -1.703836,2.1544 -4.700159,2.3455 -3.846395,0.2454 -4.755254,1.5418 -1.323153,1.8874 1.193117,0.1202 3.892325,1.0462 5.998236,2.0577 2.492328,1.1973 5.025708,1.83 7.257272,1.8127 4.804178,-0.038 5.476713,0.5247 4.050338,3.3838 -1.560317,3.1278 -4.33297,4.3998 -10.59555,4.861 -4.075481,0.3001 -5.794734,0.1147 -7.614174,-0.8208 z m 24.600517,-0.018 c 0.240286,-0.2403 0.863955,-0.266 1.385947,-0.057 0.57684,0.2309 0.405501,0.4023 -0.436876,0.4369 -0.762265,0.031 -1.18935,-0.1395 -0.949071,-0.3797 z m 4.461753,-2.117 c 1.826945,-1.3819 3.004083,-1.3672 1.850324,0.023 -0.4951,0.5965 -1.429781,1.0742 -2.077073,1.0616 -0.988705,-0.019 -0.952455,-0.1928 0.226749,-1.0847 z m 12.335297,-3.231 c 0.245797,-0.3977 1.221984,-0.7231 2.169305,-0.7231 0.947317,0 1.923506,0.3254 2.169308,0.7231 0.26648,0.4312 -0.6093,0.7231 -2.169308,0.7231 -1.560005,0 -2.435782,-0.2919 -2.169305,-0.7231 z m 5.322595,-2.8383 -1.707092,-1.3921 2.350091,-2.3092 c 3.226036,-3.1699 3.010203,-3.8463 -1.080242,-3.3852 -4.259211,0.48 -5.660683,-0.2408 -7.114371,-3.6594 -0.858943,-2.02 -1.02632,-3.9024 -0.675297,-7.5952 0.505058,-5.31332 -0.50103,-9.91401 -2.16801,-9.91401 -0.719717,0 -0.87308,-0.67807 -0.572414,-2.53085 0.366264,-2.25701 0.236649,-2.53086 -1.197811,-2.53086 -1.000382,0 -1.751497,-0.54676 -1.986701,-1.4462 -0.208007,-0.79542 -0.70357,-1.4462 -1.101254,-1.4462 -0.426427,0 -0.520495,0.81577 -0.229281,1.98852 1.077414,4.33892 1.294974,11.03109 0.393924,12.11676 -1.472076,1.77377 -3.527767,1.3138 -4.061546,-0.90866 -0.262666,-1.09369 -1.570447,-3.49641 -2.906182,-5.33939 -2.567415,-3.54236 -2.947969,-5.35902 -1.494477,-7.13413 1.313883,-1.60462 6.826918,-5.78482 7.629271,-5.78482 0.381741,0 1.366033,-1.13889 2.187318,-2.53085 1.504818,-2.55049 2.607909,-2.93669 7.265045,-2.54356 1.872189,0.15803 2.480368,0.66412 4.818104,4.00928 4.532557,6.4858 4.254698,14.28628 -0.742243,20.83765 -1.014625,1.33022 -1.844775,3.31382 -1.844775,4.40802 0,3.0906 2.526226,6.0586 5.633942,6.6194 3.530103,0.637 5.221501,1.5558 4.886679,2.6546 -0.149629,0.4911 -0.454774,1.9504 -0.678099,3.243 -0.646692,3.7428 1.308116,2.8961 2.5035,-1.0843 0.652512,-2.1728 1.496176,-3.5203 2.296781,-3.6685 1.048623,-0.1941 1.261803,0.3014 1.244234,2.892 -0.02993,4.4195 -3.129163,7.8263 -7.11952,7.8263 -1.712718,0 -3.493691,-0.5474 -4.529574,-1.3921 z m -64.639697,-4.4843 c -1.205648,-0.3251 -3.239372,-1.6148 -4.519384,-2.8664 -1.9969029,-1.9523 -2.3273099,-2.78 -2.3273099,-5.8304 0,-2.0552 -0.49283,-4.3073 -1.1680915,-5.3379 -1.6182214,-2.46978 -1.5521811,-8.65186 0.1120735,-10.49086 0.704092,-0.778 2.043218,-1.41456 2.9758449,-1.41456 2.000699,0 2.1162,-0.5061 0.518428,-2.27163 -1.0886719,-1.20296 -1.0822229,-1.5011 0.08573,-3.96237 2.767251,-5.83156 10.325876,-11.84354 14.890404,-11.84354 1.908757,0 1.87007,4.17097 -0.07403,7.98173 -0.935839,1.83439 -1.296616,3.5145 -1.004548,4.67818 0.962607,3.83534 3.155963,2.74956 3.17686,-1.57266 0.01482,-3.07262 2.269238,-8.02747 4.962278,-10.90647 1.869962,-1.99908 2.700329,-2.35008 5.559725,-2.35008 2.266519,0 3.960305,0.47107 5.19999,1.4462 2.47415,1.94617 3.184229,1.82124 2.936313,-0.51662 -0.149768,-1.41233 0.15674,-2.03753 1.092839,-2.22917 1.821998,-0.37301 4.84538,1.77892 4.84538,3.44877 0,1.24877 -4.747589,5.69161 -5.344993,5.0019 -0.134157,-0.15489 -0.635426,-1.03353 -1.113931,-1.95254 -1.287403,-2.47256 -2.348359,-1.60126 -2.504975,2.05721 -0.07604,1.77608 -0.707794,4.08887 -1.40391,5.13955 -2.222655,3.35477 -7.349742,3.17049 -7.840005,-0.28176 -0.321079,-2.26093 -1.629567,-2.04344 -1.90206,0.31615 -0.325281,2.81679 2.06337,4.92475 5.580507,4.92475 2.500485,0 3.169282,-0.41112 5.820953,-3.57826 1.647732,-1.96803 3.71176,-3.79511 4.58672,-4.06016 2.269882,-0.68762 4.766368,-3.14228 6.363729,-6.2571 1.622957,-3.16475 3.717501,-4.47644 6.166559,-3.86176 2.575833,0.64649 3.559989,3.74342 2.137533,6.72635 -0.617327,1.29454 -1.467008,2.35371 -1.888185,2.35371 -0.421178,0 -2.378817,1.50881 -4.35031,3.35291 -3.16537,2.96083 -3.58453,3.69839 -3.58453,6.30741 0,2.57626 0.393454,3.29534 3.073182,5.6166 l 3.073182,2.66203 -1.446204,2.73434 c -1.862124,3.52075 -4.725657,6.17095 -6.171846,5.71185 -0.624268,-0.1981 -1.768757,0.1191 -2.543307,0.7048 -1.950465,1.4751 -2.578559,1.3807 -4.855395,-0.7306 l -1.986151,-1.8417 -0.642765,1.6907 c -1.13827,2.9938 -2.76932,3.7418 -8.054,3.6935 -4.743279,-0.044 -4.977137,0.036 -5.777075,1.9674 -1.070444,2.5843 -2.636747,3.1592 -4.78023,1.7548 -2.356125,-1.5438 -2.155696,-2.5209 1.186545,-5.7846 2.606853,-2.5455 3.626224,-5.1716 2.460158,-6.33762 -0.685927,-0.68594 -2.460158,0.25009 -2.460158,1.29772 0,1.3688 -3.557118,5.4015 -4.764437,5.4015 -1.622134,0 -1.261719,4.35 0.517307,6.2437 2.844964,3.0284 0.525948,4.5047 -4.814411,3.065 z m 0.736638,-5.6783 c 0.240714,-0.3894 0.07152,-1.3923 -0.376034,-2.2286 -0.662745,-1.2382 -0.573398,-1.696 0.481593,-2.4675 1.092909,-0.7991 1.145689,-1.1274 0.337811,-2.1008 -1.225426,-1.4765 -0.523041,-3.34142 1.258508,-3.34142 1.031764,0 1.485207,-0.68004 1.81066,-2.71529 0.238805,-1.49342 1.381183,-3.84965 2.538615,-5.23604 l 2.104428,-2.52077 2.580121,1.23038 c 3.288644,1.56825 5.149503,4.40261 4.939333,7.52337 -0.09043,1.34273 0.118936,2.44137 0.465266,2.44137 0.893919,0 2.414668,-3.58105 1.884821,-4.43836 -0.772655,-1.25017 1.898063,-3.39344 4.849995,-3.8922 3.324951,-0.56174 6.087243,0.85401 7.157209,3.66826 0.370113,0.97343 0.987178,1.76993 1.371254,1.76993 1.367306,0 1.549505,-1.43542 0.451677,-3.55838 -0.612813,-1.18502 -1.114205,-2.78175 -1.114205,-3.54822 0,-1.72779 -1.830575,-3.42683 -2.509154,-2.32886 -0.257729,0.41702 -1.625331,0.75821 -3.039103,0.75821 -1.413779,0 -3.832916,0.70952 -5.375855,1.5767 l -2.805353,1.57669 -1.631715,-1.48633 c -2.263705,-2.06202 -4.477886,-3.11325 -6.557338,-3.11325 -2.229756,0 -3.206225,-1.17585 -3.950239,-4.7568 -0.796908,-3.83555 -2.779704,-3.93473 -2.481684,-0.12415 0.200334,2.56158 -0.667532,3.59159 -1.665564,1.97674 -0.249809,-0.40419 -0.791492,-0.52643 -1.203754,-0.27165 -0.44559,0.2754 0.01454,1.17177 1.134618,2.21037 1.999181,1.85374 2.360435,3.78616 1.135639,6.07473 -0.603747,1.12811 -1.534646,1.39869 -4.812234,1.39869 -3.9132819,0 -4.0187169,0.0499 -2.8487239,1.34252 1.0845939,1.19846 1.0966199,1.44071 0.1120739,2.25781 -0.6065959,0.50342 -1.1028959,1.36362 -1.1028959,1.91144 0,1.45281 1.8335179,1.21761 2.9849839,-0.38281 1.067081,-1.48315 4.246031,-2.75039 4.246031,-1.69263 0,0.3528 -0.813489,1.3488 -1.807754,2.21327 -1.435516,1.24818 -1.807754,2.25268 -1.807754,4.87808 0,4.5896 1.845847,7.6589 3.244723,5.3955 z m 63.781961,-3.3424 c -1.741812,-0.9443 -1.998089,-1.4784 -1.807754,-3.7673 0.212043,-2.5502 0.357901,-2.6853 3.327854,-3.08168 3.548799,-0.47361 6.74918,-3.03528 5.434545,-4.34988 -0.589195,-0.58918 -1.224449,-0.38245 -2.382217,0.77531 -2.035666,2.03568 -2.63038,1.39559 -1.419525,-1.5277 0.526079,-1.27005 0.985575,-4.09372 1.021112,-6.27482 0.05461,-3.35123 0.302716,-4.05374 1.601376,-4.53415 3.498958,-1.29435 6.015994,1.45628 6.015994,6.57429 0,1.08014 0.713373,2.87077 1.585265,3.97921 1.145932,1.45683 1.585265,3.00579 1.585265,5.58912 0,3.1462 -0.287946,3.8253 -2.406355,5.6749 -2.056674,1.7956 -2.996287,2.0967 -6.4662,2.072 -2.232909,-0.016 -4.973124,-0.5242 -6.08936,-1.1293 z"
       id="path4061"
       style="fill:#ffffff;fill-opacity:1;stroke:none" />
  </g>
</svg>
