<?xml version="1.0" encoding="UTF-8" standalone="no"?>
<!-- Created with Inkscape (http://www.inkscape.org/) -->

<svg
   xmlns:dc="http://purl.org/dc/elements/1.1/"
   xmlns:cc="http://creativecommons.org/ns#"
   xmlns:rdf="http://www.w3.org/1999/02/22-rdf-syntax-ns#"
   xmlns:svg="http://www.w3.org/2000/svg"
   xmlns="http://www.w3.org/2000/svg"
   version="1.1"
   width="100"
   height="100"
   id="svg4172">
  <defs
     id="defs4174" />
  <metadata
     id="metadata4177">
    <rdf:RDF>
      <cc:Work
         rdf:about="">
        <dc:format>image/svg+xml</dc:format>
        <dc:type
           rdf:resource="http://purl.org/dc/dcmitype/StillImage" />
        <dc:title></dc:title>
      </cc:Work>
    </rdf:RDF>
  </metadata>
  <g
     transform="translate(0,-952.3622)"
     id="layer1">
    <path
       d="m 25.860766,1026.4188 -18.167515,-14.8024 0.0018,-4.4187 0.0018,-4.4186 17.696533,-15.90705 c 9.733088,-8.74889 18.278104,-16.03539 18.988911,-16.19225 0.710808,-0.15695 1.638111,0.6384 2.060673,1.76745 2.245814,6.00015 2.975198,4.95735 -13.765929,19.68244 -8.645071,7.60403 -15.71832,14.27501 -15.71832,14.82431 0,0.5492 6.760507,6.3365 15.023348,12.8605 8.262842,6.524 15.279055,12.2739 15.591585,12.7776 0.687751,1.1083 -1.754692,8.6291 -2.802367,8.6291 -0.408326,0 -8.917789,-6.6611 -18.909924,-14.8024 z m 30.946861,11.2143 c -0.789619,-1.9735 -1.131055,-4.1277 -0.758741,-4.7872 0.372305,-0.6596 7.536851,-6.6259 15.921205,-13.2585 8.384355,-6.6325 15.244095,-12.3324 15.243874,-12.6663 -2.3e-4,-0.3339 -7.17364,-6.9069 -15.94093,-14.60671 -13.672944,-12.00816 -15.856058,-14.27103 -15.346802,-15.90707 1.47737,-4.74623 2.216563,-5.99335 3.394959,-5.72752 0.695546,0.15686 7.951991,6.29531 16.125426,13.64111 22.414822,20.14489 20.606992,18.16349 20.591482,22.56859 -0.007,2.1138 -0.30569,4.2764 -0.66279,4.806 -1.01231,1.5012 -35.548874,29.5257 -36.386673,29.5257 -0.409926,0 -1.391383,-1.6147 -2.18101,-3.5881 z"
       id="path4089"
       style="fill:#ffffff;fill-opacity:1;stroke:none" />
  </g>
</svg>
