<?xml version="1.0" encoding="UTF-8" standalone="no"?>
<!-- Created with Inkscape (http://www.inkscape.org/) -->

<svg
   xmlns:dc="http://purl.org/dc/elements/1.1/"
   xmlns:cc="http://creativecommons.org/ns#"
   xmlns:rdf="http://www.w3.org/1999/02/22-rdf-syntax-ns#"
   xmlns:svg="http://www.w3.org/2000/svg"
   xmlns="http://www.w3.org/2000/svg"
   version="1.1"
   width="100"
   height="100"
   id="svg4172">
  <defs
     id="defs4174" />
  <metadata
     id="metadata4177">
    <rdf:RDF>
      <cc:Work
         rdf:about="">
        <dc:format>image/svg+xml</dc:format>
        <dc:type
           rdf:resource="http://purl.org/dc/dcmitype/StillImage" />
        <dc:title></dc:title>
      </cc:Work>
    </rdf:RDF>
  </metadata>
  <g
     transform="translate(0,-952.3622)"
     id="layer1">
    <path
       d="m 68.750237,968.74848 c 12.469764,6.39864 21.093253,19.51644 21.990877,33.45182 0.430731,6.6867 -1.594353,16.118 -4.633091,21.5775 -9.356347,16.8097 -27.857175,24.9238 -45.841069,20.1051 -6.901711,-1.8494 -11.141767,-4.0659 -16.564227,-8.6592 -5.877711,-4.9788 -11.54273,-14.6512 -13.032407,-22.2512 -3.446411,-17.58294 4.355524,-34.56241 19.947207,-43.41141 11.766991,-6.67833 26.106162,-6.9839 38.13271,-0.81261 z m -17.980091,-1.21624 c -6.177947,-0.0103 -11.944524,1.41174 -17.412355,4.29386 -9.870231,5.20268 -15.868843,12.56923 -18.670236,22.92773 -2.835787,10.48597 -1.639183,20.04177 3.627427,28.96637 16.798917,28.4668 59.498075,22.5167 67.952022,-9.4691 0.891943,-3.3746 1.484625,-7.4977 1.403035,-9.7601 -0.479874,-13.30415 -7.639307,-25.63605 -18.547257,-31.94718 -4.451406,-2.57547 -13.34199,-5.00324 -18.352585,-5.01177 z m 16.242983,7.39063 c 10.598154,6.13194 17.108167,16.8306 17.512683,28.78093 0.13702,4.0471 -0.238364,6.3696 -1.882901,11.6496 -1.829452,5.8737 -2.473831,7.0846 -5.894559,11.0776 -12.963909,15.1328 -33.763646,16.9384 -48.737934,4.2309 -9.975777,-8.4656 -14.128587,-22.0309 -10.668805,-34.84989 5.712405,-21.16521 30.89211,-31.75433 49.671516,-20.88914 z m -2.65902,14.02291 c -14.230055,4.82748 -18.87305,7.26919 -22.985199,12.08712 -4.806457,5.6315 -14.455007,20.7825 -13.874826,21.7874 0.575698,0.9971 16.294867,-4.3924 23.645881,-8.1074 6.363469,-3.2158 8.639238,-5.6825 16.673625,-18.07266 5.275348,-8.13524 6.192879,-9.96543 5.137798,-10.24813 -0.328669,-0.0881 -4.197442,1.06107 -8.597279,2.55367 z m 2.471712,3.46758 c -0.04149,0.15484 -1.737074,2.83077 -3.767981,5.9466 -3.797063,5.82544 -7.392707,10.22004 -8.677712,10.60604 -1.013322,0.3043 -7.518263,-7.9776 -7.199683,-9.16656 0.142583,-0.53213 2.051174,-1.78308 4.241293,-2.77979 8.247122,-3.75318 15.778983,-6.00543 15.404083,-4.60629 z"
       id="path4087"
       style="fill:#ffffff;fill-opacity:1;stroke:none" />
  </g>
</svg>
