<?xml version="1.0" encoding="UTF-8" standalone="no"?>
<!-- Created with Inkscape (http://www.inkscape.org/) -->

<svg
   xmlns:dc="http://purl.org/dc/elements/1.1/"
   xmlns:cc="http://creativecommons.org/ns#"
   xmlns:rdf="http://www.w3.org/1999/02/22-rdf-syntax-ns#"
   xmlns:svg="http://www.w3.org/2000/svg"
   xmlns="http://www.w3.org/2000/svg"
   xmlns:sodipodi="http://sodipodi.sourceforge.net/DTD/sodipodi-0.dtd"
   xmlns:inkscape="http://www.inkscape.org/namespaces/inkscape"
   version="1.1"
   width="100"
   height="100"
   id="svg4172"
   inkscape:version="0.48.4 r9939"
   sodipodi:docname="diode-blk.svg">
  <sodipodi:namedview
     pagecolor="#ffffff"
     bordercolor="#666666"
     borderopacity="1"
     objecttolerance="10"
     gridtolerance="10"
     guidetolerance="10"
     inkscape:pageopacity="0"
     inkscape:pageshadow="2"
     inkscape:window-width="754"
     inkscape:window-height="837"
     id="namedview7"
     showgrid="false"
     inkscape:zoom="2.36"
     inkscape:cx="-26.90678"
     inkscape:cy="50"
     inkscape:window-x="0"
     inkscape:window-y="0"
     inkscape:window-maximized="0"
     inkscape:current-layer="svg4172" />
  <defs
     id="defs4174" />
  <metadata
     id="metadata4177">
    <rdf:RDF>
      <cc:Work
         rdf:about="">
        <dc:format>image/svg+xml</dc:format>
        <dc:type
           rdf:resource="http://purl.org/dc/dcmitype/StillImage" />
        <dc:title></dc:title>
      </cc:Work>
    </rdf:RDF>
  </metadata>
  <g
     transform="translate(0,-952.3622)"
     id="layer1"
     style="fill:#ffffff;fill-opacity:1">
    <path
       d="m 38.004618,1030.4905 0,-17.7819 3.486661,0 3.486661,0 0,17.7819 0,17.782 -3.486661,0 -3.486661,0 0,-17.782 z m 20.919966,0 0,-17.7819 3.486661,0 3.486661,0 0,17.7819 0,17.782 -3.486661,0 -3.486661,0 0,-17.782 z m -37.896525,-22.5438 c -0.801632,-0.8858 -1.154078,-2.5421 -1.154078,-5.4235 0,-5.21687 1.256195,-7.24787 4.482814,-7.24787 l 2.311733,0 0.341825,-9.58834 c 0.27129,-7.60982 0.657194,-10.40873 1.870203,-13.56425 2.118956,-5.51228 6.765231,-10.45466 12.467177,-13.26172 4.152167,-2.04411 5.281029,-2.28765 10.603529,-2.28765 5.3225,0 6.451355,0.24354 10.603522,2.28765 5.714135,2.81306 10.358514,7.75991 12.450852,13.26172 1.183714,3.11258 1.591584,6.05797 1.878347,13.56425 l 0.366302,9.58834 2.303588,0 c 3.242588,0 4.474669,2.029 4.474669,7.36897 0,7.019 2.160691,6.5776 -32.198448,6.5776 -27.836853,0 -29.718458,-0.078 -30.802035,-1.2752 z m 48.233617,-22.66673 c -0.219674,-9.72502 -0.282775,-10.08744 -2.333301,-13.40052 -7.261425,-11.73242 -24.100394,-11.18007 -30.46295,0.99927 -1.849081,3.53954 -1.947468,4.19946 -1.947468,13.06223 l 0,9.33438 17.484747,0 17.484754,0 -0.225782,-9.99536 z"
       id="path4041"
       style="fill:#ffffff;fill-opacity:1;stroke:none" />
  </g>
</svg>
