<?xml version="1.0" encoding="UTF-8" standalone="no"?>
<!-- Created with Inkscape (http://www.inkscape.org/) -->

<svg
   xmlns:dc="http://purl.org/dc/elements/1.1/"
   xmlns:cc="http://creativecommons.org/ns#"
   xmlns:rdf="http://www.w3.org/1999/02/22-rdf-syntax-ns#"
   xmlns:svg="http://www.w3.org/2000/svg"
   xmlns="http://www.w3.org/2000/svg"
   version="1.1"
   width="100"
   height="100"
   id="svg4172">
  <defs
     id="defs4174" />
  <metadata
     id="metadata4177">
    <rdf:RDF>
      <cc:Work
         rdf:about="">
        <dc:format>image/svg+xml</dc:format>
        <dc:type
           rdf:resource="http://purl.org/dc/dcmitype/StillImage" />
        <dc:title></dc:title>
      </cc:Work>
    </rdf:RDF>
  </metadata>
  <g
     transform="translate(0,-952.3622)"
     id="layer1">
    <path
       d="m 31.910236,1045.1593 -0.904261,-1.9846 1.401329,-1.5484 c 0.770725,-0.8517 2.437664,-1.776 3.704304,-2.0543 1.26664,-0.2782 2.302982,-1.005 2.302982,-1.6153 0,-0.6102 -4.245995,-4.5177 -9.43554,-8.6834 -5.189552,-4.1656 -9.841143,-7.5739 -10.336867,-7.5739 -0.495732,0 -0.901328,0.8713 -0.901328,1.9361 0,1.0649 -0.348957,2.854 -0.775464,3.9757 l -0.775464,2.0397 -2.246082,0 c -1.235343,0 -2.675459,-0.4294 -3.200254,-0.9542 -0.524795,-0.5248 -0.949807,-2.5822 -0.944463,-4.5721 0.0064,-2.3375 0.945942,-5.7622 2.655119,-9.6767 1.45497,-3.3324 3.46914,-7.2156 4.475935,-8.6296 1.006788,-1.4139 3.766016,-3.8089 6.131608,-5.3221 2.365592,-1.51324 5.982637,-3.26168 8.037868,-3.88539 2.055232,-0.62363 5.057472,-1.13785 6.671645,-1.14254 1.614173,-0.008 3.095558,-0.27703 3.291966,-0.60503 0.196401,-0.328 0.09665,-2.28731 -0.22167,-4.35405 -0.318328,-2.06673 -0.283151,-5.91936 0.07816,-8.56139 0.361313,-2.64202 1.361763,-6.18523 2.223213,-7.87381 0.861443,-1.68858 3.195818,-4.50453 5.187493,-6.25768 4.669879,-4.11058 14.924186,-9.23233 17.100947,-8.54145 0.885512,0.28105 2.004271,1.24765 2.486128,2.14802 l 0.876105,1.63702 -0.876948,1.92469 c -0.482318,1.05858 -0.876948,2.07253 -0.876948,2.25321 0,0.47872 12.943109,10.85888 14.093364,11.30265 0.535426,0.20658 1.544972,-0.19584 2.243442,-0.89429 0.69847,-0.69854 1.90456,-1.27001 2.680199,-1.27001 0.775638,0 2.025382,0.67977 2.777214,1.51054 l 1.366955,1.51045 -0.526799,3.06162 c -0.801687,4.65915 -2.459904,10.12226 -3.942815,12.98987 -1.96806,3.80579 -7.461794,9.47057 -10.871823,11.21027 -1.642401,0.8378 -5.701029,1.9272 -9.019171,2.4206 l -6.032985,0.8973 0.51565,5.2649 c 0.670139,6.8423 -0.959571,13.1357 -4.732456,18.2754 -1.574201,2.1445 -4.280862,5.1807 -6.0148,6.7473 -1.733938,1.5665 -4.942637,3.7553 -7.130443,4.8639 -2.187813,1.1086 -5.249752,2.0157 -6.804322,2.0157 l -2.826481,0 -0.904253,-1.9847 z m 11.927512,-10.1679 c 0.465866,-0.5613 0.599133,-1.3895 0.296151,-1.8404 -0.302981,-0.4508 -5.330698,-4.6432 -11.172706,-9.3163 -5.842008,-4.6731 -11.081495,-8.4964 -11.643296,-8.4964 -1.504929,0 -2.205935,2.5115 -1.022038,3.6618 0.562731,0.5467 5.495826,4.5848 10.962439,8.9735 5.466612,4.3888 10.342751,7.9928 10.835867,8.0089 0.493108,0.016 1.277724,-0.4298 1.743583,-0.9911 z m 5.284477,-5.311 c 0.776815,-0.8583 1.214271,-2.077 0.972118,-2.708 -0.242153,-0.631 -4.84768,-4.7008 -10.234516,-9.0439 -5.386835,-4.3431 -10.579314,-8.3864 -11.538838,-8.9851 l -1.744592,-1.0885 -1.634768,1.4795 c -0.899125,0.8137 -1.634768,1.9435 -1.634768,2.5107 0,1.1365 22.136417,19.3742 23.532284,19.3876 0.478883,0.01 1.506272,-0.6939 2.28308,-1.5523 z m 3.414903,-9.6327 c 0.114143,-1.4969 -0.0648,-3.1009 -0.397572,-3.5645 -0.332799,-0.4636 -4.109716,-3.6464 -8.39313,-7.0728 l -7.788035,-6.2299 -3.14519,0.9423 c -1.729859,0.5183 -3.145191,1.2766 -3.145191,1.6852 0,1.1248 20.782144,17.5774 21.786872,17.2479 0.481101,-0.1576 0.968111,-1.5114 1.082246,-3.0082 z m -1.40024,-9.4237 c 0,-0.4062 -1.205144,-2.0164 -2.678107,-3.5781 -1.845807,-1.9572 -3.377906,-2.8396 -4.929891,-2.8396 -1.399461,0 -1.965865,0.2798 -1.496397,0.7393 1.789177,1.7513 7.963046,6.4022 8.508037,6.4092 0.327997,0 0.596358,-0.3246 0.596358,-0.7308 z m 13.517441,-9.5116 c 0,-0.3895 -3.385077,-3.43093 -7.522392,-6.75869 -4.137315,-3.32767 -7.715462,-6.0504 -7.951436,-6.0504 -0.98015,0 -0.31669,3.70576 1.238698,6.91878 1.659099,3.42723 3.150582,4.66686 7.032401,5.84471 2.851894,0.8654 7.202729,0.8929 7.202729,0.045 z m 7.516453,-1.8047 c 1.113901,-0.50746 2.025271,-1.35541 2.025271,-1.88426 0,-0.52885 -5.235385,-5.15253 -11.634192,-10.275 l -11.634183,-9.31352 -1.002772,1.05969 c -0.551527,0.58284 -1.238198,1.84593 -1.525936,2.80678 l -0.523165,1.74709 2.226903,1.95382 c 1.224792,1.07456 5.805042,4.84784 10.178331,8.38503 4.37329,3.53712 8.381872,6.43387 8.907955,6.43717 0.526083,0 1.867887,-0.40926 2.981788,-0.9168 z m 5.973016,-6.18121 c 0.452715,-0.84596 0.80292,-2.18776 0.778238,-2.98179 -0.02688,-0.86583 -4.028889,-4.62678 -9.997324,-9.39526 -5.47384,-4.37329 -10.482291,-8.24832 -11.12988,-8.6112 -1.533021,-0.85905 -5.250047,1.5351 -4.91751,3.16738 0.280074,1.37475 21.987828,19.22613 23.477402,19.30667 0.531276,0.0286 1.336359,-0.63993 1.789074,-1.4858 z m 3.208547,-9.17286 0,-1.87049 -8.547794,-6.8465 -8.547793,-6.84651 -1.98786,0.21609 c -1.093322,0.11885 -1.987859,0.64193 -1.987859,1.16241 0,1.23272 19.545346,16.99854 20.410621,16.46372 0.363381,-0.22454 0.660685,-1.25004 0.660685,-2.27872 z"
       id="path4079"
       style="fill:#ffffff;fill-opacity:1;stroke:none" />
  </g>
</svg>
