<?xml version="1.0" encoding="UTF-8" standalone="no"?>
<!-- Created with Inkscape (http://www.inkscape.org/) -->

<svg
   xmlns:dc="http://purl.org/dc/elements/1.1/"
   xmlns:cc="http://creativecommons.org/ns#"
   xmlns:rdf="http://www.w3.org/1999/02/22-rdf-syntax-ns#"
   xmlns:svg="http://www.w3.org/2000/svg"
   xmlns="http://www.w3.org/2000/svg"
   xmlns:sodipodi="http://sodipodi.sourceforge.net/DTD/sodipodi-0.dtd"
   xmlns:inkscape="http://www.inkscape.org/namespaces/inkscape"
   width="100"
   height="100"
   id="svg4172"
   version="1.1"
   inkscape:version="0.48.4 r9939"
   sodipodi:docname="gear.svg">
  <defs
     id="defs4174" />
  <sodipodi:namedview
     id="base"
     pagecolor="#ffffff"
     bordercolor="#666666"
     borderopacity="1.0"
     inkscape:pageopacity="0.0"
     inkscape:pageshadow="2"
     inkscape:zoom="2.8"
     inkscape:cx="20.790403"
     inkscape:cy="59.667619"
     inkscape:document-units="px"
     inkscape:current-layer="layer1"
     showgrid="false"
     inkscape:window-width="942"
     inkscape:window-height="987"
     inkscape:window-x="0"
     inkscape:window-y="0"
     inkscape:window-maximized="0" />
  <metadata
     id="metadata4177">
    <rdf:RDF>
      <cc:Work
         rdf:about="">
        <dc:format>image/svg+xml</dc:format>
        <dc:type
           rdf:resource="http://purl.org/dc/dcmitype/StillImage" />
        <dc:title></dc:title>
      </cc:Work>
    </rdf:RDF>
  </metadata>
  <g
     inkscape:label="Layer 1"
     inkscape:groupmode="layer"
     id="layer1"
     transform="translate(0,-952.3622)">
    <path
       style="fill:#ffffff;fill-opacity:1;stroke:none"
       d="m 43.694933,1041.5222 c -0.892637,-5.9145 -1.227517,-6.9435 -2.371365,-7.2866 -0.639138,-0.1918 -2.840034,-1.1242 -4.890865,-2.0721 l -3.728789,-1.7236 -4.205622,2.9501 -4.205621,2.95 -3.566112,-3.5661 -3.566106,-3.5661 2.91936,-4.1618 2.919359,-4.1618 -1.68417,-3.806 c -0.926299,-2.0933 -1.859966,-4.329 -2.074835,-4.9681 -0.384663,-1.1442 -1.422019,-1.4799 -7.328677,-2.3714 l -2.9829187,-0.4502 0,-5.1225 0,-5.12263 3.3338507,-0.4572 c 6.18843,-0.8487 7.193898,-1.1824 7.200959,-2.39 0.0035,-0.6449 0.802819,-2.8824 1.775665,-4.9723 l 1.768801,-3.7998 -2.890758,-4.1211 -2.890766,-4.121 3.492207,-3.585 3.492205,-3.5849 4.175568,2.929 4.175568,2.929 3.799811,-1.7688 c 2.089896,-0.9729 4.327429,-1.7719 4.972302,-1.7757 1.207541,-0.01 1.541249,-1.0125 2.389935,-7.2009 l 0.457208,-3.3339 5.118416,0 5.118423,0 0.504008,3.6848 c 0.63998,4.6789 1.458612,6.8413 2.593266,6.85 0.492083,0 2.604615,0.8028 4.694511,1.7757 l 3.799811,1.7688 4.168023,-2.9237 4.168022,-2.9237 3.520603,3.5206 3.52061,3.5206 -2.908557,4.2831 -2.908564,4.283 1.772605,3.498 c 0.974931,1.924 1.772605,3.9902 1.772605,4.5916 0,1.326 1.95443,2.1234 6.843165,2.7921 l 3.68479,0.504 0,5.15513 0,5.1551 -3.33386,0.4492 c -6.010606,0.8097 -6.509371,1.1347 -7.929381,5.167 -0.723403,2.0542 -1.693133,4.1901 -2.154952,4.7466 -0.669865,0.8071 -0.507265,1.4671 0.804083,3.2634 0.904063,1.2385 2.283161,3.1294 3.064665,4.2021 l 1.420915,1.9503 -3.58436,3.5844 -3.584367,3.5843 -4.272761,-2.9971 c -3.407379,-2.3902 -4.473818,-2.8304 -5.265449,-2.1734 -0.545973,0.4532 -2.682515,1.4147 -4.747867,2.1369 l -3.75518,1.3129 -0.966494,4.9763 -0.966494,4.9763 -5.113117,0 -5.113123,0 -0.450189,-2.9829 z m 11.116231,-16.3245 c 9.957279,-2.5935 16.205365,-10.7192 16.182379,-21.0453 -0.03453,-15.49813 -15.163456,-25.54703 -30.066872,-19.97103 -4.765413,1.783 -10.260512,7.4743 -11.920524,12.3461 -1.713221,5.02813 -1.472418,12.47443 0.541487,16.74473 2.832243,6.0054 8.613127,10.7185 14.989605,12.2208 3.933242,0.9266 5.786997,0.8734 10.273925,-0.2953 z m -10.26445,-6.2191 c -10.955308,-4.0766 -14.15909,-17.5824 -6.085892,-25.65563 6.021292,-6.0212 15.684947,-6.0728 21.642377,-0.1153 2.797663,2.7977 4.985343,7.91133 4.95903,11.59173 -0.01867,2.6095 -2.310099,7.8622 -4.414798,10.1203 -3.737429,4.0096 -11.186494,5.8875 -16.100717,4.0589 z m 8.645995,-8.3496 c 1.343612,-0.9054 2.796146,-2.7365 3.372846,-4.2517 0.900077,-2.3649 0.886398,-2.9266 -0.122805,-5.043 -3.169678,-6.64693 -12.037841,-6.25343 -14.345118,0.6365 -1.139882,3.4039 0.209057,6.8442 3.461064,8.8269 2.99883,1.8283 4.727372,1.7901 7.634013,-0.1687 z"
       id="path4043"
       inkscape:connector-curvature="0" />
  </g>
</svg>
