<?xml version="1.0" encoding="UTF-8" standalone="no"?>
<!-- Created with Inkscape (http://www.inkscape.org/) -->

<svg
   xmlns:dc="http://purl.org/dc/elements/1.1/"
   xmlns:cc="http://creativecommons.org/ns#"
   xmlns:rdf="http://www.w3.org/1999/02/22-rdf-syntax-ns#"
   xmlns:svg="http://www.w3.org/2000/svg"
   xmlns="http://www.w3.org/2000/svg"
   xmlns:sodipodi="http://sodipodi.sourceforge.net/DTD/sodipodi-0.dtd"
   xmlns:inkscape="http://www.inkscape.org/namespaces/inkscape"
   version="1.1"
   width="100"
   height="100"
   id="svg4172"
   inkscape:version="0.48.4 r9939"
   sodipodi:docname="lightbulb-blk.svg">
  <sodipodi:namedview
     pagecolor="#ffffff"
     bordercolor="#666666"
     borderopacity="1"
     objecttolerance="10"
     gridtolerance="10"
     guidetolerance="10"
     inkscape:pageopacity="0"
     inkscape:pageshadow="2"
     inkscape:window-width="812"
     inkscape:window-height="673"
     id="namedview7"
     showgrid="false"
     inkscape:zoom="2.36"
     inkscape:cx="-26.90678"
     inkscape:cy="50"
     inkscape:window-x="0"
     inkscape:window-y="0"
     inkscape:window-maximized="0"
     inkscape:current-layer="svg4172" />
  <defs
     id="defs4174" />
  <metadata
     id="metadata4177">
    <rdf:RDF>
      <cc:Work
         rdf:about="">
        <dc:format>image/svg+xml</dc:format>
        <dc:type
           rdf:resource="http://purl.org/dc/dcmitype/StillImage" />
        <dc:title></dc:title>
      </cc:Work>
    </rdf:RDF>
  </metadata>
  <g
     transform="translate(0,-952.3622)"
     id="layer1"
     style="fill:#ffffff;fill-opacity:1">
    <path
       d="m 46.566019,1046.4987 c -1.706537,-0.775 -3.216876,-2.0458 -3.438423,-2.893 -0.258668,-0.9891 -1.12849,-1.5946 -2.519096,-1.7536 -1.654732,-0.1892 -2.173284,-0.6669 -2.347076,-2.1622 -0.219338,-1.8871 -0.01965,-1.9723 11.928211,-5.0843 6.683208,-1.7409 12.79101,-3.0431 13.572894,-2.8939 2.015563,0.3845 2.254554,3.294 0.354126,4.311 -0.925446,0.4953 -1.528317,1.5586 -1.528317,2.6955 0,2.7047 -3.311044,6.6501 -6.728205,8.0175 -3.774742,1.5103 -5.545989,1.4652 -9.294114,-0.237 z m 9.492241,-5.7699 c 1.144079,-1.0961 2.080139,-2.2269 2.080139,-2.5129 0,-0.2861 -2.085909,-0.026 -4.635354,0.5772 -7.179518,1.6996 -7.080788,1.6474 -5.420672,2.8691 2.300285,1.6929 5.642939,1.3018 7.975887,-0.9334 z m -17.676384,-8.0194 c -0.234801,-0.6119 -0.253513,-1.5643 -0.04161,-2.1166 0.462505,-1.2053 24.363842,-7.3477 26.059454,-6.6971 1.594695,0.612 1.450718,3.0409 -0.233688,3.9424 -1.647346,0.8816 -22.127903,5.9783 -24.036111,5.9815 -0.726646,0 -1.513284,-0.4984 -1.748078,-1.1102 z m 0.204008,-7.2508 c -1.331608,-0.9736 -1.014186,-3.5033 0.439602,-3.5033 0.50047,0 0.506292,-0.3109 0.01735,-0.927 -0.40467,-0.5099 -0.974017,-2.2466 -1.265214,-3.8592 -0.732452,-4.0564 -2.833536,-7.9229 -6.346904,-11.6801 -3.807175,-4.0712 -6.477213,-9.47113 -7.558674,-15.28633 -2.217931,-11.92639 4.458224,-24.86419 15.672264,-30.37151 3.741969,-1.83772 4.901474,-2.02916 12.290006,-2.02916 7.86727,0 8.323589,0.0897 12.795126,2.51454 7.905457,4.28704 13.141827,11.37928 14.983357,20.29376 1.74331,8.43897 -1.02299,17.45007 -7.6464,24.9077 -4.087404,4.6022 -5.466336,7.1165 -6.109753,11.1402 -0.554878,3.47 0.35891,3.0418 -15.18042,7.1124 -11.661481,3.0548 -10.452203,2.8859 -12.090344,1.688 z m 15.556996,-7.5025 c 6.431712,-1.6167 6.446034,-1.6256 7.320239,-4.5581 1.331711,-4.4673 2.832832,-6.942 7.390423,-12.1835 5.050355,-5.80843 6.713365,-10.54923 6.152315,-17.53872 -0.46225,-5.75866 -2.55432,-10.18997 -6.884353,-14.58204 -5.056399,-5.12885 -9.114996,-6.82077 -16.287186,-6.78968 -7.353859,0.0319 -12.383285,2.03942 -16.617565,6.63307 -5.229272,5.67309 -6.369902,8.66016 -6.368174,16.67704 0.0015,6.1889 0.240185,7.4967 1.964091,10.754 1.079422,2.0395 2.836377,4.52343 3.904347,5.51963 4.306659,4.0175 9.609941,15.5894 8.194208,17.8801 -0.582201,0.9421 1.812646,0.5557 11.231662,-1.8118 z m -8.182675,-2.8611 c -0.186972,-0.9178 -0.497148,-3.7736 -0.689289,-6.3463 -0.192133,-2.5726 -1.10225,-6.8103 -2.022475,-9.41693 -2.349301,-6.6547 -1.915061,-7.0427 7.882059,-7.0427 5.959856,0 7.900334,0.2567 8.809064,1.1654 1.411009,1.411 1.464519,0.6426 -0.411264,5.906 -0.867197,2.43343 -1.961533,7.26113 -2.431855,10.72833 -0.811098,5.9796 -0.949483,6.3041 -2.6878,6.3041 -1.727897,0 -1.84522,-0.2622 -2.052216,-4.5867 -0.158796,-3.3176 0.266737,-6.0365 1.537981,-9.8269 l 1.757518,-5.24033 -4.671658,0 c -5.180449,0 -5.158229,-0.055 -2.230725,5.49253 1.325385,2.5114 2.352157,10.6837 1.628693,12.9631 -0.705375,2.2225 -3.959942,2.1491 -4.418033,-0.1 z"
       id="path4141"
       style="fill:#ffffff;fill-opacity:1;stroke:#ffffff;stroke-width:0.74165660000000000;stroke-opacity:1" />
  </g>
</svg>
