<?xml version="1.0" encoding="UTF-8" standalone="no"?>
<!-- Created with Inkscape (http://www.inkscape.org/) -->

<svg
   xmlns:dc="http://purl.org/dc/elements/1.1/"
   xmlns:cc="http://creativecommons.org/ns#"
   xmlns:rdf="http://www.w3.org/1999/02/22-rdf-syntax-ns#"
   xmlns:svg="http://www.w3.org/2000/svg"
   xmlns="http://www.w3.org/2000/svg"
   version="1.1"
   width="100"
   height="100"
   id="svg4172">
  <defs
     id="defs4174" />
  <metadata
     id="metadata4177">
    <rdf:RDF>
      <cc:Work
         rdf:about="">
        <dc:format>image/svg+xml</dc:format>
        <dc:type
           rdf:resource="http://purl.org/dc/dcmitype/StillImage" />
        <dc:title></dc:title>
      </cc:Work>
    </rdf:RDF>
  </metadata>
  <g
     transform="translate(0,-952.3622)"
     id="layer1">
    <path
       d="m 82.559451,1031.1595 -1.493545,-1.2094 2.710592,-4.4828 c 6.988511,-11.5578 6.699357,-28.36213 -0.688491,-40.01153 l -2.113547,-3.3327 1.463391,-1.3244 c 1.434793,-1.2984 1.51075,-1.2679 3.887401,1.5628 6.770815,8.0642 9.654718,20.12103 7.532627,31.49163 -0.864638,4.6329 -4.097132,11.4089 -7.411092,15.5352 -2.304168,2.869 -2.44972,2.9353 -3.887336,1.7712 z m -39.909872,-3.4021 c -6.621291,-9.2465 -8.617105,-20.984 -5.463731,-32.13263 1.274461,-4.5057 4.338224,-10.5703 6.820929,-13.5017 1.837632,-2.1697 2.18373,-2.3107 3.560409,-1.451 1.920225,1.1992 1.908275,1.4201 -0.248702,4.5986 -7.565158,11.1479 -7.716999,29.85273 -0.332848,41.00083 1.844327,2.7843 2.097188,3.6098 1.373048,4.4824 -1.517776,1.8288 -2.697021,1.2099 -5.709105,-2.9965 z m -32.550338,-24.0955 0,-17.33023 10.159483,0 10.159482,0 -0.230743,1.6247 c -0.217776,1.5334 -0.60613,1.6364 -6.910077,1.8323 l -6.679334,0.2076 0,6.1107 0,6.11073 6.549032,0 c 6.378569,0 6.543025,0.043 6.318289,1.6247 -0.216526,1.5245 -0.620016,1.6376 -6.549032,1.8333 l -6.318289,0.2086 0,7.5539 0,7.5538 -3.249406,0 -3.249405,0 0,-17.3301 z m 42.242268,16.6081 c -0.692673,-1.1209 0.13633,-1.9409 2.424677,-2.3985 2.099181,-0.4199 7.323539,-6.4595 7.323539,-8.4665 0,-1.7443 -4.563191,-8.0329 -6.311197,-8.6974 -2.379136,-0.90463 -1.691475,-2.40943 1.231567,-2.69513 3.922336,-0.3835 5.696562,0.4568 7.714616,3.65373 l 1.913792,3.0316 1.155539,-1.7816 c 2.226998,-3.43363 4.303021,-5.03103 6.538395,-5.03103 1.717694,0 2.19909,0.3161 2.19909,1.4441 0,0.93253 -0.481396,1.44423 -1.358497,1.44423 -1.539475,0 -5.621847,3.8813 -6.28713,5.9773 -0.588208,1.8534 5.250822,10.5322 7.465104,11.0958 0.966518,0.246 1.624703,0.967 1.624703,1.7795 0,1.1426 -0.545091,1.3659 -3.334359,1.3659 -2.894679,0 -3.688126,-0.357 -6.017242,-2.7078 -1.475584,-1.4893 -3.072472,-3.3577 -3.548632,-4.152 l -0.865743,-1.4442 -0.879484,1.4349 c -2.228818,3.6366 -6.150699,6.8691 -8.333859,6.8691 -1.214728,0 -2.409427,-0.3249 -2.654879,-0.722 z"
       id="path4059"
       style="fill:#ffffff;fill-opacity:1;stroke:none" />
  </g>
</svg>
