<?xml version="1.0" encoding="UTF-8" standalone="no"?>
<!-- Created with Inkscape (http://www.inkscape.org/) -->

<svg
   xmlns:dc="http://purl.org/dc/elements/1.1/"
   xmlns:cc="http://creativecommons.org/ns#"
   xmlns:rdf="http://www.w3.org/1999/02/22-rdf-syntax-ns#"
   xmlns:svg="http://www.w3.org/2000/svg"
   xmlns="http://www.w3.org/2000/svg"
   xmlns:sodipodi="http://sodipodi.sourceforge.net/DTD/sodipodi-0.dtd"
   xmlns:inkscape="http://www.inkscape.org/namespaces/inkscape"
   version="1.1"
   width="100"
   height="100"
   id="svg4172"
   inkscape:version="0.48.4 r9939"
   sodipodi:docname="pencil-ruler-blk.svg">
  <sodipodi:namedview
     pagecolor="#ffffff"
     bordercolor="#666666"
     borderopacity="1"
     objecttolerance="10"
     gridtolerance="10"
     guidetolerance="10"
     inkscape:pageopacity="0"
     inkscape:pageshadow="2"
     inkscape:window-width="1135"
     inkscape:window-height="928"
     id="namedview7"
     showgrid="false"
     inkscape:zoom="2.36"
     inkscape:cx="50"
     inkscape:cy="66.949153"
     inkscape:window-x="0"
     inkscape:window-y="0"
     inkscape:window-maximized="0"
     inkscape:current-layer="svg4172" />
  <defs
     id="defs4174" />
  <metadata
     id="metadata4177">
    <rdf:RDF>
      <cc:Work
         rdf:about="">
        <dc:format>image/svg+xml</dc:format>
        <dc:type
           rdf:resource="http://purl.org/dc/dcmitype/StillImage" />
        <dc:title></dc:title>
      </cc:Work>
    </rdf:RDF>
  </metadata>
  <g
     transform="translate(0,-954.3622)"
     id="layer1"
     style="fill:#ffffff;fill-opacity:1;stroke:#ffffff;stroke-opacity:1">
    <path
       id="path4157"
       style="fill:#ffffff;fill-opacity:1;stroke:#ffffff;stroke-width:2.21886467999999980;stroke-miterlimit:4;stroke-opacity:1;stroke-dasharray:none"
       d="m 75.181202,1039.9043 c -6.772745,-3.0201 -11.388738,-5.5132 -12.481114,-6.7413 -0.953418,-1.0717 -3.418133,-3.8961 -5.477136,-6.2763 -2.059009,-2.3802 -3.967184,-4.239 -4.240396,-4.1309 -0.273211,0.1086 -4.330856,4.6432 -9.016988,10.0776 -4.68613,5.4345 -8.942516,9.881 -9.458638,9.881 -1.60944,0 -21.724441,-7.9409 -21.727963,-8.5776 -0.0021,-0.3319 2.726908,-3.7464 6.063873,-7.5879 19.469262,-22.4126 19.116608,-21.959 18.045347,-23.2199 -1.065782,-1.2547 -17.093356,-19.82989 -23.215447,-26.90568 l -3.661793,-4.23219 10.245803,-3.91519 c 5.635188,-2.15335 10.603891,-3.9152 11.041548,-3.9152 0.437665,0 5.205167,5.07046 10.594448,11.26767 5.389283,6.19722 10.036724,11.35342 10.327637,11.45822 0.290914,0.10525 3.985137,-3.80967 8.209384,-8.69897 4.22424,-4.88929 8.128479,-9.26145 8.676073,-9.71591 0.794755,-0.65959 3.137697,0.009 11.612241,3.31233 5.839124,2.27626 10.793378,4.31541 11.009436,4.53147 0.216047,0.21605 0.09181,0.81066 -0.276051,1.32136 -0.760132,1.05523 -21.63231,25.19269 -23.049375,26.65519 -0.773141,0.7981 -0.703213,1.1962 0.426175,2.4269 0.743084,0.8098 4.936975,5.6165 9.319752,10.6817 l 7.968685,9.2094 0.449874,5.3519 c 0.24742,2.9434 0.631142,6.99 0.852697,8.9922 0.312364,2.8228 0.190249,3.6294 -0.543805,3.5916 -0.52065,-0.027 -5.783073,-2.2057 -11.694267,-4.8415 z m -39.662206,0.5912 c 0.45764,-0.4576 0.832074,-1.0501 0.832074,-1.3164 0,-0.2664 -2.340209,-1.338 -5.200465,-2.3811 -2.860255,-1.0432 -5.200464,-2.167 -5.200464,-2.4973 0,-0.7934 -0.36917,-0.8883 5.832814,1.4999 5.140554,1.9794 5.528744,2.0331 6.744786,0.9326 1.653949,-1.4969 1.628515,-2.1387 -0.10655,-2.6895 -0.768275,-0.2439 -1.21738,-0.7337 -0.998012,-1.0887 0.23995,-0.3882 0.957545,-0.3464 1.801241,0.1052 1.100972,0.5892 1.688057,0.492 2.731499,-0.4523 0.731005,-0.6616 1.329107,-1.4392 1.329107,-1.7282 0,-0.2888 -2.184195,-1.3599 -4.853767,-2.3799 -2.669572,-1.0202 -4.853766,-2.1395 -4.853766,-2.4876 0,-0.8608 -0.136787,-0.8964 5.547161,1.4474 2.774476,1.1442 5.145443,2.0803 5.268819,2.0803 0.123376,0 0.869039,-0.6921 1.657035,-1.5379 1.432714,-1.5378 1.432714,-1.5378 0.02704,-2.0578 -0.773142,-0.2862 -1.405706,-0.8354 -1.405706,-1.2209 0,-0.4488 0.622406,-0.4173 1.730673,0.087 1.43001,0.6515 1.972079,0.5702 3.12028,-0.4691 0.76428,-0.6916 1.389605,-1.4799 1.389605,-1.7516 0,-0.2718 -2.340209,-1.3876 -5.200464,-2.4797 -2.860256,-1.092 -5.200465,-2.2254 -5.200465,-2.5186 0,-0.7157 -0.313802,-0.7998 5.780489,1.547 2.971193,1.144 5.553001,2.0802 5.737354,2.0802 0.461149,0 -12.456555,-15.1435 -12.970375,-15.205 -0.573014,-0.069 -23.876287,26.9264 -23.771363,27.5375 0.08333,0.4854 17.239366,7.5648 18.671311,7.7048 0.400435,0.039 1.102498,-0.3033 1.560138,-0.7609 z m 47.213101,-0.9901 2.17708,-0.4355 -0.451726,-4.5916 c -0.24845,-2.5255 -0.51244,-4.6691 -0.586654,-4.7637 -0.242391,-0.3089 -14.225219,5.0148 -14.231072,5.4182 -0.0062,0.4493 8.953266,4.6409 10.135222,4.7416 0.429037,0.036 1.759752,-0.1296 2.95715,-0.369 z M 68.061004,1002.538 c 0.714516,-1.1441 0.635448,-1.4114 -0.5266,-1.7802 -0.752034,-0.2387 -1.36734,-0.7173 -1.36734,-1.06347 0,-0.36032 0.782788,-0.33188 1.830459,0.0661 1.439045,0.54707 2.106279,0.44627 3.12028,-0.47139 0.709398,-0.64193 1.289818,-1.38963 1.289818,-1.66139 0,-0.27174 -2.340209,-1.38764 -5.200463,-2.47969 -2.860256,-1.09204 -5.200465,-2.2254 -5.200465,-2.51865 0,-0.77473 0.147582,-0.73565 5.991219,1.58572 l 5.333929,2.11892 1.444723,-1.50666 c 0.794603,-0.8287 1.132703,-1.63119 0.751336,-1.78347 -1.614931,-0.64473 -2.702646,-1.59647 -2.292843,-2.00628 0.242321,-0.24231 1.117316,-0.0784 1.94444,0.36435 1.224875,0.65547 1.750428,0.58168 2.832969,-0.39805 0.731005,-0.66152 1.329107,-1.43893 1.329107,-1.72748 0,-0.28855 -2.200102,-1.38776 -4.889121,-2.44285 -2.689016,-1.05498 -5.04764,-2.17458 -5.241382,-2.48809 -0.608128,-0.984 0.766125,-0.63577 5.986198,1.51685 4.747546,1.95769 5.139453,2.01535 6.33592,0.9326 1.636788,-1.48124 1.60989,-2.12642 -0.111433,-2.67272 -0.762735,-0.24208 -1.386791,-0.75222 -1.386791,-1.13359 0,-0.61346 0.752604,-0.5115 3.813674,0.51664 0.381367,0.12809 1.232142,-0.50981 1.890612,-1.41748 l 1.197209,-1.65042 -5.205513,-1.89855 c -2.863028,-1.04421 -5.370366,-2.16531 -5.571853,-2.49132 -0.586723,-0.94934 0.419262,-0.71337 6.258211,1.46795 4.085775,1.52636 5.737268,1.86094 6.413914,1.29938 0.501202,-0.41598 0.911281,-0.98391 0.911281,-1.26207 0,-0.53164 -17.889786,-7.64518 -19.226763,-7.64518 -1.357418,0 -16.959199,18.64205 -16.393763,19.58843 0.908091,1.51966 12.25199,14.38786 12.683635,14.38786 0.228057,0 0.792987,-0.6058 1.255391,-1.3462 z m -36.52451,-22.27262 c 7.474378,-2.90764 8.854754,-3.68081 7.769195,-4.35173 -0.75397,-0.46598 -17.515282,5.8964 -17.515655,6.64871 -5.41e-4,1.07682 2.724932,0.43445 9.74646,-2.29698 z m -3.002248,-3.85606 8.477954,-3.22721 -2.822013,-3.37058 c -1.55211,-1.85384 -3.200637,-3.37061 -3.663388,-3.37061 -0.462751,0 -3.944011,1.19696 -7.736127,2.65987 -3.792116,1.46293 -7.469004,2.86809 -8.170858,3.12258 -1.133208,0.41087 -0.951276,0.85065 1.624708,3.92737 1.59544,1.90558 3.105766,3.46944 3.356283,3.47524 0.25051,0.005 4.270558,-1.44171 8.933441,-3.21666 z" />
  </g>
</svg>
