<?xml version="1.0" encoding="UTF-8" standalone="no"?>
<!-- Created with Inkscape (http://www.inkscape.org/) -->

<svg
   xmlns:dc="http://purl.org/dc/elements/1.1/"
   xmlns:cc="http://creativecommons.org/ns#"
   xmlns:rdf="http://www.w3.org/1999/02/22-rdf-syntax-ns#"
   xmlns:svg="http://www.w3.org/2000/svg"
   xmlns="http://www.w3.org/2000/svg"
   version="1.1"
   width="100"
   height="100"
   id="svg4172">
  <defs
     id="defs4174" />
  <metadata
     id="metadata4177">
    <rdf:RDF>
      <cc:Work
         rdf:about="">
        <dc:format>image/svg+xml</dc:format>
        <dc:type
           rdf:resource="http://purl.org/dc/dcmitype/StillImage" />
        <dc:title></dc:title>
      </cc:Work>
    </rdf:RDF>
  </metadata>
  <g
     transform="translate(0,-952.3622)"
     id="layer1">
    <path
       d="m 76.538569,1035.7001 c -4.359072,-1.895 -6.086368,-8.1556 -3.434126,-12.447 4.596633,-7.4375 16.325561,-4.1384 16.325561,4.5921 0,6.6023 -6.567642,10.604 -12.891435,7.8549 z m -33.511405,-11.3308 c -4.637746,-1.5511 -7.041104,-2.8522 -9.520702,-5.1547 l -2.003964,-1.8608 -10.741819,0.017 c -11.2270347,0.018 -13.6269357,-0.4692 -15.2569447,-3.0938 -1.722237,-2.7729 3.905668,-7.8526 14.1561597,-12.777 4.398753,-2.11319 6.372893,-3.40929 6.372893,-4.18399 0,-0.61736 0.633504,-2.81565 1.407781,-4.8851 1.78354,-4.76693 6.927836,-10.05506 12.14311,-12.48263 3.248868,-1.51226 4.629072,-1.75661 9.979785,-1.76678 5.372747,-0.0102 6.709342,0.22251 9.918933,1.72711 2.040195,0.95641 5.01442,2.94181 6.609395,4.41201 3.502835,3.22879 3.078083,3.89995 6.923131,3.49011 3.869104,-0.4124 4.475881,-0.71771 8.079742,-1.1443 1.485622,-0.17587 4.423718,-0.20439 6.427376,0.23114 4.088604,0.88873 6.488264,2.2907 6.488264,3.79071 0,3.37848 -4.5537,7.13873 -14.851607,12.26372 l -5.828876,2.9009 -0.816364,2.8259 c -1.043788,3.6132 -4.770414,9.1285 -7.654315,11.3282 -6.403109,4.8839 -15.085321,6.6188 -21.831978,4.3625 z m 14.499799,-6.711 c 2.934106,-1.5537 5.75763,-4.0304 7.134398,-6.2581 0.765584,-1.2387 1.25723,-2.3869 1.092555,-2.5517 -0.164682,-0.1646 -1.595367,0.1603 -3.179301,0.7223 -4.444135,1.5766 -20.077506,5.5286 -21.870249,5.5286 -2.319249,0 -1.962289,0.9824 0.85213,2.3452 4.429854,2.1449 12.128902,2.2479 15.970467,0.2137 z m -30.564702,-5.7446 c 0.478627,-0.7744 -1.103105,-7.2724 -1.770245,-7.2724 -1.334459,0 -12.885459,6.5671 -12.885459,7.3258 0,0.7106 14.21553,0.6589 14.655704,-0.053 z m 18.545016,-3.1159 c 4.060285,-0.8913 10.678288,-2.7095 14.706675,-4.0403 l 7.324334,-2.4198 -0.167348,-2.69959 c -0.686357,-11.07178 -12.827664,-18.64394 -23.864265,-14.8834 -9.220751,3.14183 -14.306605,14.5047 -10.598132,23.67839 l 1.136479,2.8113 2.03996,-0.4129 c 1.121975,-0.2272 5.362014,-1.1424 9.422297,-2.0337 z m 36.08405,-12.95103 c 2.696225,-1.54065 4.902231,-3.0319 4.902231,-3.31388 0,-1.07009 -2.509329,-1.59036 -4.472887,-1.59983 -2.439276,-0.0118 -1.81527,0.0597 -5.381718,0.59811 -0.865157,0.1306 -2.514684,0.4255 -3.697564,1.00379 -0.954771,0.46676 -0.81692,-0.10498 -0.520918,1.48489 0.189697,1.0189 0.746773,2.62307 0.968223,3.63206 0.501641,2.2858 1.382361,2.092 8.202633,-1.80514 z M 15.871808,983.42808 c -0.887662,-0.88767 -1.604361,-2.37007 -1.604361,-3.31844 0,-2.27218 3.275228,-5.53528 5.555854,-5.53528 2.280627,0 5.555855,3.2631 5.555855,5.53528 0,2.5286 -2.702093,4.9228 -5.555855,4.9228 -1.620505,0 -2.843806,-0.49668 -3.951493,-1.60436 z"
       id="path4071"
       style="fill:#ffffff;fill-opacity:1;stroke:none" />
  </g>
</svg>
