<?xml version="1.0" encoding="utf-8"?>
<!-- Generator: Adobe Illustrator 16.0.0, SVG Export Plug-In . SVG Version: 6.00 Build 0)  -->
<!DOCTYPE svg PUBLIC "-//W3C//DTD SVG 1.1//EN" "http://www.w3.org/Graphics/SVG/1.1/DTD/svg11.dtd">
<svg version="1.1" id="Layer_1" xmlns="http://www.w3.org/2000/svg" xmlns:xlink="http://www.w3.org/1999/xlink" x="0px" y="0px"
	 width="1221px" height="1221px" viewBox="0 0 1221 1221" enable-background="new 0 0 1221 1221" xml:space="preserve">
<g>
	<path fill-rule="evenodd" clip-rule="evenodd" fill="#7695A5" d="M719.202,154.503c12.376-9.981,23.554-18.982,34.732-27.98
		c18.016-14.489,36.098-28.876,53.96-43.534c2.232-1.829,4.18-4.842,4.839-7.632c1.688-7.182,3.238-14.518,3.627-21.85
		c0.505-9.452-4.254-15.97-12.149-18.861c-6.761-2.473-13.23-0.134-19.575,6.932c-1.064,1.191-2.443,2.098-4.977,4.228
		c0.259-2.925,0.03-4.061,0.472-4.815c4.393-7.672,9.928-14.269,17.952-18.384c12.795-6.548,25.702-0.51,26.479,13.776
		c0.612,11.027-0.832,22.425-3.056,33.313c-5.471,26.994-12.031,53.77-17.899,80.688c-1.205,5.551-1.744,11.342-1.753,17.021
		c-0.003,8.496,4.473,14.315,12.056,16.784c7.388,2.396,12.604-1.157,17.133-6.531c1.167-1.384,2.46-2.663,4.483-4.85
		c0.169,10.542-11.108,23.425-21.034,25.746c-8.054,1.879-17.192-2.318-20.144-10.5c-1.715-4.774-2.59-10.541-1.71-15.49
		c3.561-20.003,7.949-39.858,12.014-59.772c0.204-0.965,0.278-1.952,0.658-4.813c-8.582,6.81-15.917,12.583-23.212,18.424
		c-13.575,10.864-27.235,21.623-40.593,32.753c-3.502,2.934-6.301,3.426-10.128,1.208
		C727.924,158.371,724.19,156.875,719.202,154.503"/>
	<g>
		<path fill-rule="evenodd" clip-rule="evenodd" fill="#7695A5" d="M113.197,396.495c1.092-2.493,2.109-4.771,3.105-7.063
			c1.746-4.017,3.487-8.036,5.215-12.062c2.23-5.221-0.042-10.657-5.328-12.655c-2.479-0.935-4.995-1.807-7.533-2.606
			c-5.395-1.69-11.217,1.007-13.459,6.185c-2.558,5.918-5.109,11.842-7.661,17.769c-0.173,0.396-0.215,0.833-0.317,1.253
			c-0.191,0.017-0.382,0.043-0.573,0.063c-1.033-1.605-2.225-3.137-3.069-4.839c-3.712-7.447-3.987-15.24-0.366-23.146
			c4.191-9.156,11.552-14.9,21.614-17.36c1.229-0.299,1.92-0.751,2.427-1.937c6.76-15.809,13.577-31.607,20.438-47.394
			c0.467-1.07,0.306-1.741-0.329-2.583c-8.777-11.508-6.138-28.274,5.945-37.937c3.954-3.157,8.415-5.272,13.363-6.358
			c0.394-0.09,0.792-0.128,1.398-0.224c-0.199,0.521-0.318,0.911-0.479,1.286c-2.538,5.888-5.071,11.778-7.622,17.658
			c-2.399,5.535,0.024,11.093,5.707,13.037c2.212,0.757,4.418,1.532,6.641,2.271c5.739,1.926,11.582-0.697,14.005-6.287
			c2.544-5.882,5.073-11.767,7.616-17.654c0.15-0.357,0.338-0.701,0.661-1.365c0.999,1.497,1.92,2.75,2.707,4.091
			c7.245,12.304,2.444,29.146-10.621,37.241c-3.315,2.05-6.853,3.6-10.69,4.331c-0.869,0.165-1.299,0.543-1.639,1.341
			c-6.885,16.022-13.799,32.039-20.734,48.044c-0.35,0.804-0.367,1.361,0.182,2.081c9.579,12.494,5.904,29.599-6.579,38.864
			C122.994,393.683,118.339,395.703,113.197,396.495z M135.693,300.471c-0.963,0.503-1.848,1.393-2.376,2.625
			c-4.611,10.707-9.236,21.413-13.848,32.111c-1.146,2.67-0.042,5.308,2.511,6.144c2.557,0.837,5.253-0.454,6.379-3.056
			c4.639-10.741,9.272-21.474,13.905-32.22c0.801-1.852,0.419-3.712-0.991-4.975C139.922,299.884,137.727,299.578,135.693,300.471z"
			/>
	</g>
	<g>
		<path fill-rule="evenodd" clip-rule="evenodd" fill="#7695A5" stroke="#7695A5" stroke-width="2" stroke-miterlimit="10" d="
			M989.167,942.75c0.063,0.338,0.096,0.599,0.165,0.847c0.239,0.86,0.681,1.627,1.202,2.342c0.918,1.263,2.046,2.305,3.302,3.215
			c1.906,1.375,3.996,2.373,6.3,2.868c4.832,1.051,8.979-0.235,12.466-3.71c1.286-1.287,2.329-2.757,3.227-4.334
			c1.236-2.168,2.139-4.472,2.901-6.84c0.609-1.909,1.252-3.805,1.884-5.706c0.694-2.111,1.389-4.231,2.091-6.344
			c0.286-0.863,0.573-1.729,0.859-2.592c0.025-0.076,0.046-0.16,0.076-0.283c-0.343-0.104-0.668-0.211-1.003-0.312
			c-2.732-0.834-5.323-2.003-7.768-3.477c-2.519-1.514-4.708-3.431-6.646-5.632c-4.073-4.618-6.941-9.891-8.522-15.85
			c-1.067-3.994-1.304-8.065-0.928-12.171c0.274-2.973,0.89-5.869,1.827-8.699c0.831-2.513,1.917-4.906,3.291-7.168
			c2.599-4.283,5.975-7.858,9.977-10.851c3.496-2.618,7.303-4.695,11.298-6.435c4.354-1.897,8.849-3.39,13.43-4.622
			c3.476-0.94,6.975-1.799,10.473-2.678c0.343-0.09,0.496-0.232,0.603-0.567c0.694-2.178,1.394-4.35,2.142-6.509
			c0.706-2.023,1.459-4.028,2.223-6.031c0.776-2.033,1.674-4.012,2.631-5.959c4.032-8.197,9.798-14.89,17.287-20.113
			c2.299-1.606,4.741-2.868,7.458-3.586c1.091-0.291,2.19-0.484,3.317-0.483c0.662,0.003,1.322,0.052,1.943,0.296
			c0.827,0.328,1.412,0.892,1.686,1.756c0.629,2.011,0.842,4.085,0.834,6.185c-0.014,2.911-0.444,5.774-1.099,8.605
			c-0.702,2.982-1.641,5.881-2.806,8.713c-0.739,1.804-1.551,3.577-2.51,5.269c-0.894,1.573-1.819,3.127-2.786,4.661
			c-0.904,1.442-1.835,2.876-2.827,4.268c-3.323,4.664-7.541,8.322-12.565,11.066c-2.559,1.399-5.237,2.491-8.012,3.371
			c-2.63,0.835-5.272,1.643-7.915,2.441c-0.29,0.091-0.44,0.229-0.536,0.509c-0.542,1.679-1.098,3.353-1.648,5.028
			c-0.561,1.704-1.12,3.406-1.686,5.11c-0.555,1.703-1.116,3.408-1.673,5.108c-0.172,0.506-0.34,1.011-0.508,1.52
			c-0.052,0.156-0.088,0.314-0.135,0.487c0.388,0.156,0.747,0.301,1.106,0.451c4.811,2.037,8.477,5.341,10.923,9.964
			c2.078,3.929,2.755,8.143,2.325,12.546c-0.226,2.299-0.768,4.525-1.544,6.696c-0.686,1.92-1.513,3.776-2.539,5.531
			c-4.314,7.337-10.685,11.539-19.173,12.449c-2.073,0.221-4.143,0.136-6.205-0.153c-0.166-0.02-0.331-0.037-0.53-0.062
			c-0.144,0.437-0.29,0.854-0.431,1.277c-0.846,2.566-1.695,5.135-2.534,7.699c-0.943,2.88-1.884,5.751-2.824,8.63
			c-0.595,1.812-1.237,3.604-2.108,5.306c-1.227,2.387-2.747,4.559-4.782,6.334c-3.362,2.932-7.297,4.168-11.723,3.96
			c-2.241-0.109-4.408-0.602-6.512-1.376c-1.638-0.596-3.209-1.332-4.673-2.286c-4.342-2.813-7.182-6.654-8.005-11.84
			c-0.499-3.17-0.077-6.24,1.304-9.139c1.229-2.592,3.049-4.662,5.676-5.915c2.281-1.084,4.669-1.401,7.123-0.723
			c3.113,0.861,5.21,2.873,6.35,5.872c0.808,2.143,0.795,4.332,0.159,6.525c-0.44,1.533-1.154,2.946-2.16,4.191
			c-1.824,2.268-4.209,3.257-7.104,3.045c-1.733-0.132-3.346-0.646-4.892-1.426C989.565,942.945,989.416,942.873,989.167,942.75z
			 M1035.732,885.795c-0.066-0.051-0.096-0.077-0.133-0.092c-0.095-0.035-0.187-0.06-0.283-0.082
			c-3.583-0.88-6.983-0.423-10.192,1.387c-3.289,1.855-5.642,4.505-6.64,8.201c-1.068,3.971-0.457,7.63,2.211,10.86
			c0.191,0.236,0.36,0.508,0.467,0.787c0.202,0.551-0.306,1.089-0.881,0.948c-0.171-0.046-0.343-0.134-0.495-0.225
			c-0.756-0.469-1.423-1.05-2.02-1.702c-1.722-1.868-2.821-4.081-3.327-6.554c-1.138-5.555-0.006-10.662,3.178-15.317
			c2.005-2.93,4.631-5.195,7.747-6.891c3.744-2.038,7.74-2.992,12.019-2.689c0.665,0.049,1.327,0.146,1.989,0.218
			c0.208-0.35,5.193-15.427,5.201-15.746c-0.111,0.025-0.223,0.051-0.325,0.083c-2.105,0.584-4.212,1.179-6.319,1.762
			c-3.659,1.007-7.313,2.048-10.888,3.351c-3.351,1.224-6.607,2.646-9.666,4.492c-4.525,2.75-8.325,6.239-11.136,10.76
			c-1.225,1.965-2.163,4.058-2.8,6.279c-1.396,4.881-1.248,9.753,0.233,14.581c1.294,4.23,3.599,7.882,6.639,11.076
			c1.508,1.578,3.166,2.979,5.082,4.039c2.544,1.406,5.219,2.524,8.017,3.335c0.426,0.122,0.856,0.219,1.312,0.348
			C1028.407,907.9,1032.07,896.842,1035.732,885.795z M1053.083,843.233c0.083,0.017,0.11,0.035,0.135,0.029
			c0.065-0.014,0.135-0.028,0.203-0.044c4.483-1.092,8.791-2.661,12.97-4.623c5.085-2.382,9.389-5.764,13.009-10.03
			c1.439-1.693,2.665-3.537,3.455-5.634c0.384-1.032,0.634-2.092,0.584-3.201c-0.062-1.28-0.55-2.366-1.533-3.205
			c-1.157-0.992-2.518-1.358-4.018-1.267c-1.049,0.057-2.05,0.317-3.023,0.677c-1.668,0.622-3.219,1.467-4.665,2.491
			c-5.074,3.561-9.317,7.912-12.481,13.272c-1.048,1.777-1.914,3.645-2.621,5.583c-0.443,1.208-0.85,2.435-1.264,3.657
			C1053.574,841.688,1053.336,842.452,1053.083,843.233z M1038.697,886.913c-3.588,10.879-7.146,21.673-10.696,32.471
			c-0.012,0.026-0.01,0.057-0.011,0.083c0.005,0.016,0.007,0.026,0.011,0.038c0.005,0.016,0.018,0.024,0.049,0.075
			c0.526,0.026,1.08,0.073,1.642,0.084c4.742,0.099,8.772-1.527,12.037-4.993c1.159-1.226,2.123-2.601,2.972-4.058
			c0.955-1.659,1.736-3.387,2.209-5.247c1.707-6.835-1.091-13.911-7.022-17.745C1039.519,887.377,1039.123,887.17,1038.697,886.913z
			"/>
	</g>
	
		<path id="path5649_6_" inkscape:connector-curvature="0" fill="#7695A5" stroke="#7695A5" stroke-width="2" stroke-miterlimit="10" d="
		M392.52,1173.935c-18.922-11.143-38.633-20.908-57.16-32.736c1.546-7.721,5.52-14.904,8.281-22.307
		c12.05-28.536,23.853-57.205,37.147-85.191c3.953-3.748,10.738,4.402,15.678,5.317c14.865,7.354,29.241,15.777,44.502,22.272
		c5.968,0.559,10.213,5.463,16.144,6.555c18.105,6.271,36.545,11.618,54.541,18.197c-1.841,9.364-6.274,18.152-9.606,27.114
		c-11.31,27.589-22.592,55.201-34.715,82.446c-5.707,1.18-13.226-3.287-19.562-4.299c-15.614-4.646-31.431-8.764-46.8-14.097
		C398.359,1175.527,395.292,1175.109,392.52,1173.935L392.52,1173.935z M398.71,1165.836c2.604-0.614,3.237-3.14,4.139-5.418
		c11.705-28.378,23.978-56.54,35.111-85.152c1.879-7.232-10.68-3.851-14.784-6.39c-9.335-1.459-17.536-6.75-23.276-14.353
		c-4.523-4.605-8.664-10.204-14.76-12.6c-13.239,32.03-27.101,63.817-39.174,96.312c6.01,1.662,12.004,3.868,16.274,8.757
		c9.023,9.651,20.842,15.798,33.231,19.571C396.582,1166.868,397.728,1166.439,398.71,1165.836L398.71,1165.836z M427.47,1179.324
		c6.668,1.781,13.636,1.83,20.536,1.716c5.671,0.038,14.394,9.378,16.392-0.497c12.955-29.766,25.248-59.811,37.813-89.746
		c-7.268-2.995-15.587-1.303-23.338-1.38c-10.677,1.604-19.814-4.924-28.078-10.607c-2.698-0.599-7.399-8.251-8.673-3.116
		c-12.199,29.539-24.905,58.881-36.619,88.618c-3.82,7.885,6.597,9.487,11.354,11.694
		C420.337,1177.273,423.845,1178.498,427.47,1179.324L427.47,1179.324z M421.518,1064.253c-2.619-1.649-12.199-6.407-11.613-4.951
		C413.593,1061.306,417.479,1063.083,421.518,1064.253z M473.762,1085.73c-2.06-1.865-11.639-4.967-11.13-4.079
		C466.245,1083.211,469.833,1085.125,473.762,1085.73z"/>
	<g>
		<path fill="#7695A5" d="M171.117,756.901c-5.037-27.063-48.958-82.814-48.958-82.814s6.539,16.521-24.499,74.344
			c-19.958,37.196,3.212,70.815,33.97,72.242c1.215-6.181,3.849-19.579,5.281-26.761c1.904-9.538,4.223-44.05,4.695-49.737
			c0.478-5.687-0.76,39.52-1.209,46.887c-0.365,6.12-7.201,26.435-8.985,31.653c-0.457,2.752-1.08,5.389-1.79,7.843
			c-0.95,3.278-2.065,6.341-3.369,9.363c-1.695,3.953-3.096,6.37-3.096,6.37l8.888,2.797c0,0,0.188-1.078,0.492-3.034
			c0.39-2.476,0.969-6.377,1.597-11.349c0.516-4.031,1.07-8.771,1.577-14.023c0.54-0.024,1.08-0.06,1.619-0.106
			C167.872,818.052,176.604,786.337,171.117,756.901z"/>
	</g>
	<path fill="#1D1D3F" d="M701.373,106.668c4.623,1.495,8.997,3.957,13.219,6.338c8.596,4.826,16.035,9.001,24.525,5.664
		c8.22-3.21,14.436-10.925,16.24-20.118c1.648-9.172-1.328-18.682-7.785-24.791c-6.679-6.31-15.09-5.237-24.844-4.011
		c-4.784,0.622-9.73,1.247-14.573,0.891c-11.062-0.806-16.324-8.433-15.641-22.665"/>
	<g>
		<path fill="#7695A5" d="M1149.776,475.928c-0.737,3.058-1.868,5.959-3.446,8.617c-1.521,2.56-3.373,4.748-5.478,6.596
			l26.372,20.878c4.959,3.926,10.208,5.024,11.734,2.462l3.653-6.154c1.52-2.563-1.261-7.826-6.222-11.748l-26.537-21.008
			c-0.016,0.058-0.024,0.118-0.035,0.18C1149.802,475.806,1149.791,475.867,1149.776,475.928z"/>
		<g>
			<g>
				<path fill="#7695A5" d="M1105.411,412.299c8.951,0,17.57,2.733,24.925,7.901c16.302,11.464,22.695,32.438,15.563,51.025
					c-0.033,0.085-0.067,0.172-0.101,0.262c-0.032,0.082-0.063,0.165-0.094,0.25c-1.265,3.177-2.889,6.184-4.829,8.942
					c-1.87,2.661-4.077,5.137-6.561,7.359l-0.162,0.146l-0.129,0.126c-0.02,0.018-0.04,0.037-0.06,0.055
					c-7.904,6.937-18.079,10.756-28.662,10.756c-8.943,0-17.555-2.73-24.901-7.896c-9.485-6.67-15.806-16.635-17.798-28.058
					c-1.992-11.423,0.585-22.938,7.257-32.423C1077.977,419.194,1091.268,412.299,1105.411,412.299 M1105.411,403.299
					c-16.488,0-32.714,7.757-42.915,22.27c-16.654,23.678-10.947,56.37,12.727,73.019c9.162,6.441,19.674,9.534,30.079,9.534
					c12.559,0,24.965-4.502,34.677-13.06c0.059-0.05,0.114-0.108,0.173-0.158c0.054-0.05,0.109-0.104,0.165-0.159
					c2.911-2.605,5.58-5.559,7.922-8.891c2.434-3.458,4.375-7.119,5.865-10.882c0.033-0.075,0.054-0.15,0.082-0.221
					c0.03-0.075,0.055-0.149,0.086-0.223c8.447-21.912,1.323-47.567-18.759-61.689
					C1126.345,406.396,1115.824,403.299,1105.411,403.299L1105.411,403.299z"/>
			</g>
		</g>
	</g>
	<g>
		<path fill="none" d="M437.542,1081.943l0.026,0.01l0.023,0.009c12.148,4.51,25.868,2.658,35.805-4.819
			c3.455-2.602,5.89-5.633,7.618-8.914c-2.628-0.75-5.256-1.517-7.88-2.314c-1.155,1.782-2.625,3.411-4.534,4.848
			c-0.972,0.733-1.997,1.392-3.056,1.985c-7.411,4.147-16.712,4.857-25.122,1.749c-0.631-0.242-1.212-0.553-1.803-0.838
			c-0.561-0.254-1.135-0.48-1.662-0.767c-0.512-0.275-0.969-0.604-1.462-0.906c-0.589-0.364-1.189-0.689-1.746-1.085
			c-0.424-0.299-0.79-0.644-1.193-0.96c-0.583-0.452-1.178-0.891-1.729-1.381c-0.254-0.243-0.483-0.519-0.733-0.768
			c-0.634-0.611-1.277-1.219-1.839-1.877c-0.233-0.269-0.422-0.568-0.643-0.843c-0.553-0.683-1.11-1.358-1.588-2.08
			c-0.15-0.227-0.262-0.48-0.415-0.711c-0.499-0.799-1.005-1.605-1.417-2.443c-0.2-0.394-0.336-0.813-0.522-1.223
			c-0.314-0.706-0.642-1.405-0.892-2.134c-0.406-1.15-0.722-2.322-0.964-3.516c-0.424-2.1-0.472-4.077-0.25-5.978
			c-2.519-1.09-5.017-2.213-7.509-3.344c-0.722,3.371-0.852,6.98-0.063,10.902C416.448,1066.739,425.464,1077.237,437.542,1081.943z
			"/>
		<path fill="#1D1D3F" d="M325.446,198.077c-5.974-2.224-12.449-2.5-18.355-0.962c-3.546,0.921-6.889,2.496-9.81,4.696
			c-5.034,3.787-7.097,8.866-8.059,14.791c-0.573,3.55-0.755,7.416-0.942,11.477c-0.244,5.329-0.506,10.833-1.792,16.032
			c-2.968,11.896-12.164,16.17-27.342,12.694c-1.963-0.442-4.018-0.965-6.138-1.55c-0.995-0.268-2.054-0.592-3.082-0.889
			c-1.13-0.324-2.244-0.646-3.412-1.011c-1.301-0.4-2.657-0.851-4.008-1.293c-0.965-0.319-1.924-0.627-2.903-0.966
			c-1.445-0.492-2.927-1.025-4.412-1.558c-0.984-0.361-1.973-0.713-2.967-1.091c-0.711-0.262-1.374-0.487-2.088-0.758
			c-0.439-0.167-0.922-0.387-1.358-0.552c-4.071-1.562-8.262-3.261-12.562-5.09c-0.791-0.332-1.57-0.671-2.356-1.014
			c-3.61-1.553-7.255-3.167-10.983-4.883c-0.229,0.495-0.448,0.968-0.686,1.479c-0.386,0.847-0.778,1.711-1.171,2.585
			c-0.562,1.252-1.133,2.53-1.713,3.834c-0.43,0.981-0.86,1.971-1.297,2.977c-0.55,1.279-1.104,2.578-1.659,3.898
			c-0.446,1.062-0.897,2.131-1.333,3.205c-0.543,1.313-1.071,2.643-1.6,3.976c-0.444,1.116-0.891,2.23-1.319,3.357
			c-0.526,1.347-1.028,2.701-1.529,4.067c-0.421,1.125-0.839,2.249-1.246,3.376c-0.498,1.411-0.966,2.809-1.446,4.217
			c-0.358,1.072-0.735,2.15-1.079,3.22c-0.504,1.563-0.96,3.112-1.42,4.654c-0.264,0.896-0.557,1.803-0.801,2.686
			c-0.675,2.416-1.296,4.8-1.831,7.13c-2.835,12.408,0.67,15.611,4.889,17.216c0.601,0.228,1.249,0.424,1.946,0.595
			c4.443,1.104,9.322,1.337,14.487,1.577c6.744,0.318,13.718,0.641,20.049,3.049c4.504,1.713,8.167,4.284,11.158,7.807
			c30.946-39.983,67.751-74.233,108.666-101.963C341.869,209.749,334.829,201.73,325.446,198.077z"/>
		<path fill="#1D1D3F" d="M181.536,369.425c-4.017-3.248-7.817-6.319-11.862-8.443c-0.642-0.336-1.259-0.617-1.86-0.846
			c-4.217-1.604-8.963-1.551-15.091,9.605c-1.146,2.091-2.27,4.289-3.37,6.544c-0.406,0.829-0.794,1.71-1.197,2.56
			c-0.676,1.449-1.361,2.901-2.02,4.396c-0.457,1.034-0.893,2.09-1.343,3.145c-0.572,1.359-1.152,2.715-1.716,4.099
			c-0.446,1.115-0.881,2.235-1.316,3.357c-0.528,1.344-1.054,2.69-1.556,4.046c-0.429,1.127-0.835,2.255-1.245,3.382
			c-0.492,1.351-0.984,2.703-1.448,4.041c-0.386,1.101-0.76,2.184-1.134,3.272c-0.46,1.351-0.915,2.708-1.359,4.042
			c-0.337,1.031-0.668,2.043-0.996,3.052c-0.437,1.371-0.866,2.719-1.282,4.04c-0.282,0.9-0.559,1.794-0.83,2.667
			c-0.158,0.539-0.317,1.056-0.476,1.585c0.468,0.142,0.894,0.292,1.359,0.436c4.38,1.34,8.669,2.702,12.784,4.089
			c0.545,0.183,1.056,0.375,1.602,0.566c3.616,1.231,7.097,2.485,10.468,3.745c0.595,0.227,1.256,0.438,1.84,0.661
			c0.433,0.165,0.817,0.323,1.237,0.492c0.797,0.308,1.555,0.61,2.336,0.922c1.775,0.697,3.539,1.396,5.219,2.096
			c0.313,0.132,0.616,0.264,0.92,0.395c7.935-20.102,17.083-39.373,27.353-57.747C191.064,377.12,186.227,373.224,181.536,369.425z"
			/>
		<path fill="#1D1D3F" d="M1076.518,702.738c4.858,6.446,13.328,8.141,22.853,8.795c1.117,0.074,2.259,0.145,3.414,0.201
			c5.326,0.246,10.835,0.506,16.044,1.801c17.899,4.507,13.939,21.859,12.69,27.334c-0.556,2.42-1.201,4.901-1.905,7.408
			c-0.218,0.807-0.483,1.629-0.722,2.437c-0.504,1.718-1.008,3.435-1.567,5.17c-0.313,0.981-0.669,1.956-0.996,2.947
			c-0.529,1.578-1.052,3.167-1.616,4.758c-0.378,1.042-0.772,2.077-1.159,3.124c-0.556,1.515-1.102,3.026-1.682,4.52
			c-0.421,1.083-0.845,2.148-1.272,3.217c-0.569,1.44-1.141,2.86-1.718,4.28c-0.441,1.085-0.884,2.142-1.337,3.203
			c-0.575,1.372-1.138,2.71-1.715,4.036c-0.451,1.061-0.898,2.081-1.35,3.111c-0.557,1.252-1.099,2.472-1.641,3.68
			c-0.478,1.049-0.935,2.069-1.396,3.075c-0.191,0.418-0.401,0.875-0.586,1.285c0.869,0.407,1.741,0.812,2.606,1.206
			c1.138,0.517,2.286,1.044,3.414,1.544c1.58,0.703,3.13,1.377,4.685,2.058c1.059,0.446,2.121,0.91,3.173,1.354
			c1.57,0.665,3.111,1.295,4.646,1.923c0.996,0.404,1.992,0.816,2.981,1.214c1.528,0.608,3.043,1.188,4.547,1.76
			c0.941,0.359,1.899,0.733,2.825,1.075c1.48,0.558,2.916,1.06,4.358,1.575c0.899,0.319,1.813,0.651,2.693,0.953
			c1.447,0.496,2.825,0.939,4.219,1.388c0.822,0.27,1.667,0.558,2.454,0.802c1.455,0.451,2.831,0.843,4.219,1.238
			c0.681,0.194,1.388,0.418,2.047,0.594c2.004,0.552,3.947,1.041,5.785,1.467c12.71,2.893,16.239-0.474,17.818-6.838
			c1.107-4.438,1.341-9.319,1.578-14.479c0.06-1.227,0.119-2.471,0.187-3.723c0.516-8.801,1.729-18.097,8.325-25.245
			c1.066-1.168,2.286-2.276,3.671-3.314c1.629-1.236,3.399-2.26,5.217-3.184c11.634-46.101,17.732-92.608,18.444-138.695
			c-0.371-0.155-0.719-0.313-1.08-0.473c-1.5-0.627-3.082-1.261-4.658-1.889c-0.739-0.295-1.459-0.593-2.225-0.889
			c-1.487-0.588-3.046-1.165-4.598-1.744c-0.92-0.351-1.829-0.696-2.772-1.034c-1.456-0.528-2.967-1.061-4.46-1.591
			c-1.132-0.392-2.252-0.786-3.385-1.171c-1.405-0.48-2.841-0.953-4.281-1.427c-1.302-0.421-2.615-0.854-3.954-1.28
			c-1.378-0.44-2.777-0.875-4.188-1.313c-0.815-0.25-1.629-0.495-2.448-0.742c-0.136,0.438-0.279,0.917-0.418,1.36
			c-0.321,1.059-0.66,2.131-0.999,3.224c-0.397,1.264-0.805,2.537-1.22,3.841c-0.348,1.072-0.692,2.127-1.061,3.223
			c-0.447,1.373-0.916,2.749-1.401,4.154c-0.363,1.093-0.737,2.18-1.126,3.283c-0.513,1.442-1.027,2.882-1.561,4.335
			c-0.396,1.087-0.784,2.161-1.188,3.251c-0.561,1.502-1.158,2.992-1.75,4.497c-0.404,1.034-0.796,2.066-1.208,3.103
			c-0.637,1.563-1.3,3.091-1.953,4.632c-0.413,0.953-0.799,1.919-1.217,2.862c-0.733,1.667-1.497,3.283-2.26,4.896
			c-0.362,0.768-0.71,1.559-1.087,2.31c-1.137,2.339-2.304,4.62-3.497,6.798c-2.707,4.922-11.254,20.589-27.66,11.991
			c-4.742-2.495-9.032-5.96-13.177-9.314c-5.298-4.285-10.517-8.1-15.844-9.928c-0.7-0.237-1.408-0.386-2.111-0.549
			c-0.362-0.088-0.725-0.221-1.096-0.29c-2.154-0.389-4.338-0.416-6.553,0.031c-4.274,0.86-8.284,2.771-11.748,5.466
			c-1.452,13.701-3.518,27.411-6.205,41.102C1076.417,702.588,1076.465,702.666,1076.518,702.738z"/>
		<path fill="#1D1D3F" d="M1079.334,523.935c3.155,45.804,8.272,79.201,4.202,127.444c2.9-1.494,5.988-2.605,9.202-3.25
			c5.176-1.039,10.143-0.62,15.192,1.302c6.336,2.41,11.763,6.805,17.017,11.05c4.018,3.252,7.82,6.322,11.871,8.449
			c0.637,0.33,1.24,0.617,1.856,0.85c4.21,1.603,8.956,1.54,15.081-9.617c1.148-2.096,2.276-4.285,3.373-6.542
			c0.399-0.828,0.789-1.696,1.185-2.536c0.691-1.461,1.379-2.923,2.026-4.422c0.462-1.034,0.896-2.092,1.349-3.123
			c0.568-1.373,1.146-2.734,1.712-4.12c0.451-1.109,0.878-2.23,1.322-3.343c0.524-1.357,1.052-2.705,1.554-4.062
			c0.429-1.126,0.839-2.253,1.239-3.38c0.501-1.351,0.983-2.697,1.455-4.037c0.387-1.093,0.764-2.191,1.126-3.282
			c0.468-1.355,0.92-2.692,1.361-4.012c0.345-1.042,0.681-2.068,1.008-3.088c0.435-1.358,0.865-2.692,1.261-4.004
			c0.3-0.911,0.577-1.819,0.842-2.712c0.177-0.535,0.318-1.035,0.479-1.557c-4.014-1.212-7.882-2.462-11.697-3.727
			c-0.65-0.215-1.303-0.425-1.956-0.651c-4.61-1.552-9.032-3.121-13.266-4.724c-0.362-0.133-0.761-0.256-1.117-0.393
			c-0.586-0.223-1.104-0.441-1.676-0.664c-1.297-0.501-2.572-1.006-3.833-1.519c-1.22-0.492-2.445-0.979-3.615-1.475
			c-1.198-0.496-2.348-0.999-3.496-1.496c-1.096-0.48-2.213-0.959-3.279-1.441c-1.311-0.597-2.554-1.191-3.803-1.791
			c-0.777-0.377-1.614-0.754-2.375-1.134c-1.985-0.984-3.882-1.966-5.662-2.949c-13.646-7.489-17.676-16.792-11.992-27.655"/>
		<path fill="#1D1D3F" d="M1059.924,776.533c0.497,0.158,1.017,0.333,1.507,0.489c1.766,0.554,3.557,1.139,5.39,1.769
			c0.633,0.212,1.287,0.454,1.923,0.677c1.75,0.615,3.5,1.236,5.298,1.906c0.792,0.293,1.62,0.617,2.436,0.926
			c1.661,0.632,3.341,1.274,5.053,1.959c0.966,0.386,1.943,0.788,2.925,1.183c1.605,0.657,3.203,1.305,4.835,1.996
			c1.116,0.472,2.256,0.971,3.39,1.459c1.51,0.651,3.023,1.309,4.57,1.991c1.263,0.563,2.545,1.158,3.842,1.743
			c0.833,0.378,1.661,0.738,2.515,1.132c0.23-0.507,0.463-0.991,0.685-1.505c0.392-0.827,0.783-1.68,1.157-2.542
			c0.581-1.26,1.152-2.554,1.732-3.872c0.43-0.969,0.856-1.944,1.288-2.939c0.55-1.294,1.109-2.61,1.658-3.927
			c0.456-1.06,0.897-2.117,1.337-3.196c0.539-1.312,1.075-2.645,1.597-3.985c0.451-1.109,0.893-2.225,1.323-3.351
			c0.527-1.347,1.027-2.703,1.534-4.055c0.406-1.133,0.834-2.255,1.238-3.386c0.497-1.411,0.969-2.807,1.449-4.201
			c0.354-1.09,0.733-2.168,1.074-3.246c0.511-1.55,0.967-3.09,1.415-4.627c0.268-0.901,0.56-1.819,0.813-2.706
			c0.677-2.416,1.291-4.806,1.827-7.132c2.837-12.407-0.672-15.6-4.881-17.202c-0.617-0.236-1.253-0.433-1.951-0.604
			c-4.439-1.104-9.32-1.336-14.482-1.58c-6.75-0.312-13.723-0.642-20.048-3.047l-0.012-0.004c-3.01-1.144-5.638-2.678-7.947-4.616
			c-4.619,21.22-10.773,42.366-18.478,63.313C1057.244,775.727,1058.566,776.114,1059.924,776.533z"/>
		<path fill="#1D1D3F" d="M1168.966,394.158c1.245-5.005,3.667-8.573,7.103-10.876c-13.97-34.542-30.965-67.831-50.983-99.334
			c-4.006-2.365-7.715-5.305-11.313-8.217c-4.016-3.252-7.815-6.324-11.869-8.448c-0.637-0.334-1.244-0.614-1.853-0.846
			c-4.22-1.604-8.962-1.548-15.087,9.606c-1.205,2.202-2.392,4.519-3.547,6.9c-0.403,0.852-0.792,1.747-1.202,2.608
			c-0.728,1.574-1.458,3.134-2.159,4.741c-0.456,1.048-0.884,2.112-1.338,3.176c-0.618,1.473-1.236,2.944-1.832,4.431
			c-0.447,1.118-0.871,2.229-1.299,3.354c-0.563,1.435-1.107,2.867-1.636,4.295c-0.415,1.13-0.821,2.244-1.219,3.353
			c-0.507,1.405-1.008,2.8-1.476,4.161c-0.366,1.066-0.734,2.111-1.078,3.146c-0.476,1.384-0.926,2.75-1.361,4.073
			c-0.305,0.931-0.604,1.852-0.896,2.751c-0.448,1.372-0.855,2.703-1.249,3.984c-0.23,0.73-0.463,1.47-0.676,2.164
			c-0.117,0.386-0.211,0.714-0.336,1.089c0.522,0.163,0.996,0.325,1.512,0.482c4.307,1.326,8.52,2.663,12.565,4.024
			c0.683,0.234,1.315,0.468,1.993,0.698c3.474,1.194,6.817,2.395,10.064,3.607c0.627,0.233,1.34,0.47,1.961,0.708
			c0.451,0.17,0.876,0.343,1.32,0.52c0.663,0.259,1.303,0.517,1.957,0.776c1.896,0.744,3.785,1.493,5.585,2.24
			c0.485,0.207,0.934,0.405,1.423,0.613c1.853,0.787,3.688,1.569,5.421,2.355c0.659,0.299,1.24,0.594,1.864,0.875
			c1.494,0.697,2.996,1.386,4.396,2.086c2.013,0.993,3.918,1.982,5.727,2.968c13.652,7.497,17.674,16.809,11.99,27.663"/>
		<path fill="#1D1D3F" d="M166.04,444.699c-1.372-0.579-2.809-1.158-4.242-1.73c-0.876-0.346-1.722-0.7-2.617-1.047
			c-1.41-0.551-2.876-1.102-4.339-1.65c-1.005-0.37-1.989-0.744-3.008-1.115c-1.416-0.522-2.878-1.026-4.334-1.542
			c-1.159-0.407-2.313-0.815-3.491-1.214c-1.382-0.473-2.784-0.931-4.191-1.396c-1.359-0.448-2.719-0.888-4.095-1.336
			c-1.305-0.412-2.635-0.821-3.961-1.236c-0.87-0.265-1.75-0.533-2.627-0.798c-0.13,0.439-0.286,0.916-0.417,1.354
			c-0.329,1.067-0.66,2.134-1.005,3.236c-0.392,1.258-0.795,2.521-1.212,3.823c-0.352,1.073-0.698,2.143-1.061,3.236
			c-0.457,1.364-0.92,2.747-1.395,4.138c-0.378,1.105-0.75,2.196-1.137,3.302c-0.509,1.44-1.031,2.876-1.562,4.322
			c-0.39,1.091-0.782,2.165-1.187,3.255c-0.573,1.506-1.155,3.005-1.748,4.51c-0.403,1.031-0.802,2.06-1.216,3.09
			c-0.631,1.564-1.289,3.105-1.954,4.652c-0.401,0.949-0.794,1.906-1.209,2.842c-0.744,1.676-1.505,3.307-2.271,4.932
			c-0.364,0.757-0.705,1.532-1.067,2.279c-1.138,2.339-2.315,4.621-3.511,6.796c-2.704,4.924-11.307,20.506-27.646,11.998
			c-4.743-2.495-9.036-5.965-13.176-9.313c-8.468-6.851-16.751-12.525-25.61-10.743c-9.561,1.93-17.813,9.063-21.535,18.626
			c-3.551,9.564-2.125,20.37,3.737,28.158c5.441,7.23,15.387,8.492,26.263,9.002c5.33,0.251,10.833,0.511,16.041,1.8
			c0.185,0.044,0.339,0.112,0.516,0.164c0.914,0.248,1.797,0.514,2.6,0.823c14.412,5.655,10.753,21.212,9.576,26.348
			c-0.556,2.424-1.19,4.902-1.896,7.415c-0.227,0.801-0.489,1.629-0.729,2.439c-0.504,1.717-1.013,3.428-1.567,5.166
			c-0.315,0.98-0.656,1.956-0.99,2.938c-0.529,1.593-1.058,3.174-1.626,4.758c-0.377,1.052-0.763,2.091-1.149,3.13
			c-0.555,1.515-1.116,3.019-1.688,4.522c-0.421,1.085-0.843,2.146-1.274,3.215c-0.564,1.435-1.134,2.866-1.71,4.277
			c-0.446,1.087-0.894,2.149-1.342,3.216c-0.572,1.356-1.14,2.694-1.707,4.018c-0.456,1.058-0.908,2.09-1.361,3.127
			c-0.551,1.244-1.09,2.458-1.632,3.66c-0.474,1.052-0.938,2.074-1.4,3.086c-0.196,0.419-0.393,0.876-0.588,1.284
			c0.878,0.41,1.751,0.813,2.621,1.212c1.189,0.538,2.373,1.072,3.542,1.595c1.445,0.644,2.866,1.261,4.287,1.88
			c1.225,0.527,2.454,1.057,3.665,1.571c1.355,0.568,2.678,1.111,4.005,1.659c1.215,0.49,2.435,0.994,3.622,1.468
			c1.293,0.516,2.56,0.997,3.83,1.482c1.173,0.46,2.36,0.919,3.515,1.351c1.231,0.452,2.41,0.866,3.613,1.295
			c1.131,0.41,2.288,0.822,3.386,1.2c1.223,0.421,2.398,0.797,3.587,1.183c1.009,0.329,2.034,0.681,3.012,0.974
			c1.295,0.408,2.527,0.757,3.775,1.117c0.812,0.238,1.657,0.494,2.447,0.707c1.991,0.544,3.915,1.031,5.76,1.452
			c12.693,2.899,16.229-0.469,17.812-6.842c1.102-4.427,1.332-9.311,1.575-14.483c0.367-7.872,0.783-16.481,4.802-23.79
			c1.716-50.255,11.516-101.079,30.172-150.731C166.221,444.775,166.132,444.737,166.04,444.699z"/>
		<path fill="#1D1D3F" d="M1032.429,389.856c0.904-1.648,1.835-3.416,2.748-5.271c0.274-0.573,0.563-1.196,0.846-1.778
			c0.643-1.329,1.279-2.668,1.921-4.086c0.349-0.766,0.704-1.588,1.052-2.381c0.574-1.316,1.161-2.632,1.747-4.012
			c0.374-0.912,0.754-1.879,1.14-2.822c0.542-1.342,1.094-2.676,1.636-4.082c0.395-1.022,0.792-2.087,1.192-3.136
			c0.527-1.391,1.049-2.784,1.573-4.223c0.404-1.112,0.808-2.268,1.22-3.41c0.5-1.443,1.008-2.878,1.515-4.366
			c0.403-1.199,0.813-2.428,1.214-3.649c0.485-1.495,0.98-2.987,1.473-4.506c0.392-1.27,0.799-2.551,1.19-3.844
			c0.271-0.873,0.538-1.774,0.804-2.667c-3.991-1.202-7.851-2.445-11.647-3.706c-0.689-0.224-1.374-0.454-2.068-0.688
			c-4.558-1.528-8.941-3.091-13.14-4.672c-0.382-0.146-0.825-0.289-1.207-0.435c-0.622-0.235-1.186-0.476-1.81-0.713
			c-1.163-0.455-2.304-0.904-3.44-1.361c-1.341-0.539-2.672-1.076-3.965-1.621c-1.061-0.442-2.065-0.881-3.098-1.323
			c-1.225-0.536-2.459-1.063-3.635-1.598c-1.167-0.533-2.265-1.065-3.373-1.591c-0.916-0.433-1.88-0.872-2.751-1.314
			c-1.972-0.979-3.851-1.95-5.627-2.924c-13.649-7.498-17.688-16.798-11.981-27.653c2.486-4.736,5.957-9.03,9.303-13.172
			c6.832-8.443,12.721-15.738,10.738-25.612c-1.926-9.563-9.056-17.808-18.615-21.531c-9.565-3.552-20.365-2.127-28.161,3.737
			c-8.057,6.057-8.499,15.424-9.008,26.275c-0.235,5.321-0.498,10.835-1.788,16.026c-0.442,1.777-1.04,3.363-1.763,4.799
			c34.067,34.206,62.452,73.243,84.497,115.497C1031.575,391.368,1031.999,390.64,1032.429,389.856z"/>
		<path fill="#1D1D3F" d="M234.763,919.308c-1.063-0.173-2.109-0.303-3.26-0.565c-0.133-0.029-0.286-0.076-0.426-0.108
			c-1.781-0.415-3.634-0.873-5.566-1.397c-0.727-0.199-1.507-0.44-2.254-0.658c-1.388-0.398-2.77-0.79-4.225-1.237
			c-0.798-0.242-1.641-0.531-2.454-0.793c-1.468-0.473-2.933-0.943-4.442-1.459c-0.846-0.291-1.7-0.603-2.538-0.895
			c-1.573-0.558-3.148-1.113-4.762-1.715c-0.837-0.31-1.671-0.637-2.514-0.957c-1.686-0.641-3.386-1.29-5.117-1.984
			c-0.847-0.33-1.701-0.684-2.542-1.025c-1.769-0.725-3.544-1.454-5.347-2.215c-0.892-0.374-1.759-0.75-2.646-1.134
			c-1.789-0.769-3.593-1.555-5.415-2.371c-0.993-0.44-1.971-0.888-2.973-1.337c-1.015-0.466-2.018-0.9-3.028-1.371
			c-0.398,0.842-0.781,1.688-1.168,2.524c-0.556,1.227-1.123,2.456-1.663,3.667c-0.633,1.463-1.266,2.908-1.887,4.339
			c-0.514,1.188-1.029,2.371-1.526,3.54c-0.609,1.441-1.184,2.852-1.757,4.265c-0.459,1.128-0.934,2.257-1.363,3.359
			c-0.573,1.428-1.106,2.809-1.636,4.204c-0.399,1.05-0.814,2.105-1.192,3.134c-0.527,1.406-1.009,2.772-1.498,4.142
			c-0.333,0.955-0.691,1.93-1.009,2.86c-0.497,1.428-0.925,2.794-1.372,4.178c-0.271,0.813-0.551,1.65-0.793,2.456
			c-0.47,1.493-0.875,2.928-1.282,4.359c-0.177,0.613-0.385,1.263-0.549,1.862c-0.543,1.996-1.031,3.933-1.451,5.773
			c-2.476,10.862-0.097,14.667,3.355,16.516c0.497,0.267,1.015,0.49,1.534,0.688c0.608,0.231,1.255,0.433,1.953,0.605
			c4.438,1.108,9.311,1.337,14.481,1.579c6.737,0.309,13.712,0.636,20.053,3.049c5.044,1.918,9.042,4.905,12.224,9.121
			c7.483,9.943,9.328,23.659,4.819,35.801c-4.726,12.136-15.219,21.158-27.416,23.608c-1.999,0.401-3.966,0.521-5.926,0.478
			c35.769,35.696,76.307,67.262,121.166,93.596c0.417-1.049,0.845-2.113,1.268-3.183c0.463-1.179,0.926-2.354,1.367-3.515
			c0.47-1.234,0.93-2.485,1.392-3.738c0.459-1.246,0.899-2.486,1.323-3.707c0.423-1.191,0.831-2.391,1.235-3.584
			c0.406-1.195,0.798-2.387,1.162-3.552c0.432-1.339,0.825-2.666,1.213-4.002c0.283-0.945,0.584-1.917,0.842-2.831
			c0.607-2.191,1.171-4.363,1.66-6.478c0.001-0.035,0.01-0.077,0.022-0.106c1.768-7.758,1.051-11.92-0.748-14.336
			c-1.087-1.448-2.575-2.276-4.153-2.877c-0.594-0.226-1.253-0.432-1.943-0.602c-4.436-1.107-9.308-1.335-14.487-1.571
			c-6.739-0.317-13.709-0.642-20.041-3.049c-5.061-1.925-9.054-4.911-12.228-9.131c-7.487-9.936-9.331-23.652-4.822-35.796
			c4.721-12.123,15.218-21.15,27.42-23.611c5.173-1.038,10.14-0.614,15.203,1.312c6.323,2.404,11.754,6.796,16.999,11.045
			c4.03,3.259,7.821,6.325,11.882,8.449c5.042,2.625,9.93,3.983,16.942-8.768c1.055-1.919,2.084-3.944,3.101-6.008
			c0.416-0.874,0.853-1.807,1.275-2.716c0.582-1.233,1.168-2.463,1.728-3.727c0.443-1.004,0.892-2.048,1.345-3.091
			c-38.657-25.291-72.782-55.719-101.795-90.004C244.804,919.957,240.219,920.192,234.763,919.308z"/>
		<path fill="#1D1D3F" d="M550.135,1081.613c-0.359,1.073-0.739,2.148-1.077,3.225c-0.508,1.561-0.967,3.108-1.423,4.654
			c-0.263,0.898-0.549,1.8-0.806,2.68c-0.672,2.416-1.293,4.808-1.829,7.13c-2.475,10.864-0.094,14.668,3.368,16.522
			c0.485,0.262,1.004,0.485,1.534,0.686c0.598,0.229,1.243,0.43,1.941,0.603c4.431,1.104,9.317,1.339,14.474,1.576
			c6.765,0.318,13.723,0.639,20.063,3.052c5.052,1.921,9.046,4.906,12.223,9.119c7.482,9.945,9.33,23.659,4.816,35.802
			c-3.865,9.937-11.625,17.719-20.999,21.579c-2.07,0.856-4.207,1.592-6.416,2.03c-5.174,1.042-10.151,0.614-15.205-1.308
			c-6.334-2.408-11.75-6.795-17.013-11.044c-4.007-3.257-7.812-6.332-11.857-8.451c-0.637-0.335-1.254-0.613-1.853-0.841
			c-4.21-1.602-8.962-1.548-15.099,9.604c-1.146,2.103-2.271,4.304-3.382,6.568c-0.38,0.791-0.744,1.624-1.134,2.428
			c-0.71,1.514-1.411,3.014-2.101,4.575c-0.43,0.968-0.843,1.977-1.261,2.972c-0.601,1.423-1.22,2.838-1.801,4.287
			c-0.427,1.075-0.839,2.155-1.27,3.229c-0.553,1.396-1.093,2.795-1.617,4.195c-0.415,1.096-0.802,2.185-1.195,3.278
			c-0.021,0.06-0.041,0.111-0.063,0.165c49.48,8.891,99.133,11.46,147.976,8.149c-1.089-1.441-2.021-2.979-2.86-4.558
			c-3.375-6.3-4.804-13.582-4.213-20.853c0.03-0.351,0.006-0.704,0.045-1.062c0.018-0.093,0.047-0.174,0.044-0.275
			c0.368-3.052,1.061-6.098,2.163-9.042c1.027-2.654,2.385-5.123,3.933-7.443c5.503-8.29,13.954-14.244,23.484-16.17
			c5.173-1.037,10.141-0.613,15.192,1.308c6.346,2.413,11.772,6.802,17.02,11.053c4.021,3.253,7.818,6.324,11.866,8.443
			c0.633,0.335,1.252,0.613,1.851,0.841c4.218,1.604,8.967,1.555,15.095-9.603c0.91-1.654,1.839-3.421,2.755-5.277
			c0.268-0.561,0.554-1.18,0.827-1.757c0.654-1.336,1.294-2.681,1.938-4.109c0.356-0.761,0.698-1.574,1.046-2.36
			c0.577-1.332,1.161-2.641,1.75-4.033c0.377-0.908,0.755-1.876,1.14-2.811c0.542-1.347,1.093-2.688,1.635-4.09
			c0.396-1.021,0.793-2.084,1.19-3.132c0.533-1.397,1.052-2.782,1.58-4.227c0.402-1.115,0.804-2.27,1.219-3.416
			c0.501-1.438,1.008-2.875,1.511-4.357c0.408-1.204,0.814-2.428,1.221-3.658c0.477-1.484,0.975-2.979,1.467-4.496
			c0.393-1.271,0.801-2.558,1.193-3.848c0.271-0.88,0.536-1.771,0.802-2.663c-3.94-1.188-7.745-2.413-11.499-3.663
			c-0.804-0.258-1.584-0.522-2.383-0.787c-4.373-1.473-8.591-2.979-12.617-4.488c-0.501-0.191-1.061-0.363-1.557-0.552
			c-0.816-0.311-1.552-0.627-2.359-0.938c-0.736-0.284-1.438-0.568-2.163-0.857c-1.73-0.691-3.425-1.373-5.069-2.063
			c-0.647-0.276-1.261-0.542-1.899-0.816c-1.583-0.682-3.15-1.365-4.649-2.041c-0.821-0.374-1.581-0.748-2.369-1.116
			c-1.225-0.584-2.477-1.161-3.646-1.737c-1.943-0.964-3.806-1.937-5.547-2.889c-8.759-4.813-13.537-10.375-14.347-16.606
			c-43.557,7.023-88.411,7.989-133.339,2.401C550.433,1080.757,550.281,1081.184,550.135,1081.613z"/>
		<path fill="#1D1D3F" d="M346.237,62.085c5.062,5.859,5.795,12.491,1.933,19.861c-2.493,4.738-5.963,9.031-9.319,13.179
			c-6.822,8.436-12.719,15.727-10.729,25.604c1.682,8.352,7.356,15.718,15.15,19.927c0.168,0.09,0.349,0.15,0.522,0.247
			c0.954,0.494,1.921,0.956,2.935,1.354c5.155,1.906,10.642,2.33,15.836,1.451c2.825-0.479,5.548-1.36,8.091-2.624
			c1.476-0.742,2.912-1.564,4.239-2.563c5.038-3.782,7.099-8.867,8.058-14.787c0.577-3.555,0.757-7.413,0.952-11.482
			c0.241-5.327,0.505-10.832,1.792-16.032c2.96-11.893,12.17-16.171,27.347-12.699c1.897,0.435,3.886,0.938,5.931,1.495
			c0.98,0.261,2.01,0.581,3.005,0.875c1.126,0.324,2.225,0.626,3.386,0.985c1.14,0.351,2.32,0.75,3.49,1.135
			c1.108,0.354,2.191,0.696,3.32,1.083c1.176,0.407,2.397,0.849,3.603,1.276c1.202,0.427,2.396,0.847,3.627,1.302
			c1.172,0.432,2.366,0.9,3.562,1.355c1.329,0.513,2.66,1.021,4.021,1.566c1.152,0.454,2.327,0.936,3.493,1.411
			c1.453,0.597,2.911,1.19,4.393,1.821c1.166,0.486,2.352,1.003,3.539,1.517c1.502,0.646,3.01,1.296,4.536,1.979
			c1.234,0.547,2.475,1.114,3.728,1.681c0.88,0.402,1.74,0.776,2.627,1.186c0.229-0.502,0.462-0.981,0.695-1.495
			c0.386-0.831,0.772-1.689,1.161-2.557c0.568-1.255,1.137-2.547,1.714-3.854c0.434-0.974,0.852-1.959,1.291-2.951
			c0.559-1.284,1.107-2.6,1.673-3.921c0.439-1.059,0.881-2.115,1.329-3.189c0.544-1.324,1.078-2.669,1.604-4.014
			c0.439-1.097,0.881-2.204,1.314-3.313c0.524-1.364,1.025-2.724,1.538-4.1c0.415-1.118,0.83-2.234,1.229-3.358
			c0.504-1.41,0.966-2.813,1.445-4.219c0.366-1.072,0.74-2.158,1.085-3.224c0.507-1.565,0.966-3.11,1.42-4.667
			c0.259-0.893,0.56-1.79,0.799-2.672c0.681-2.414,1.302-4.805,1.832-7.14c1.061-4.65,1.231-8.006,0.818-10.474
			c-0.709-4.105-3.072-5.727-5.7-6.727c-0.607-0.231-1.258-0.429-1.953-0.603c-4.437-1.105-9.312-1.333-14.481-1.575
			c-6.735-0.312-13.715-0.644-20.049-3.052c-1.599-0.61-3.054-1.365-4.444-2.19"/>
		<path fill="#1D1D3F" d="M728.26,73.71c-18.022-4.501-13.939-21.862-12.688-27.336c0.551-2.414,1.19-4.887,1.895-7.382
			c0.218-0.81,0.479-1.631,0.729-2.448c0.489-1.706,0.99-3.413,1.547-5.137c0.318-0.991,0.675-1.969,1.002-2.967
			c0.524-1.564,1.04-3.13,1.597-4.694c0.395-1.061,0.778-2.127,1.172-3.185c0.549-1.5,1.1-2.974,1.662-4.452
			c0.415-1.093,0.845-2.162,1.272-3.24c0.044-0.077,0.07-0.153,0.104-0.233C635.707-5,544.135-1.237,457.953,21.166
			c3.324,0.534,6.867,0.822,10.538,0.999c5.326,0.246,10.833,0.508,16.029,1.8c5.627,1.391,9.094,4.057,11.168,7.228
			c4.602,6.968,2.39,16.334,1.529,20.103c-0.557,2.426-1.193,4.907-1.9,7.415c-0.215,0.782-0.48,1.578-0.709,2.37
			c-0.511,1.75-1.023,3.49-1.583,5.256c-0.312,0.952-0.643,1.897-0.966,2.85c-0.536,1.616-1.078,3.226-1.653,4.839
			c-0.364,1.041-0.757,2.068-1.137,3.1c-0.56,1.521-1.125,3.036-1.702,4.55c-0.422,1.078-0.847,2.143-1.265,3.215
			c-0.565,1.435-1.146,2.854-1.723,4.274c-0.434,1.075-0.888,2.127-1.322,3.188c-0.572,1.372-1.147,2.719-1.719,4.049
			c-0.466,1.058-0.913,2.086-1.366,3.122c-0.542,1.245-1.093,2.45-1.639,3.65c-0.457,1.059-0.934,2.089-1.396,3.1
			c-0.196,0.414-0.389,0.874-0.583,1.273c0.932,0.425,1.862,0.863,2.78,1.285c1.034,0.473,2.068,0.939,3.082,1.392
			c1.801,0.805,3.595,1.585,5.359,2.348c0.795,0.34,1.585,0.681,2.359,1.013c1.941,0.822,3.845,1.602,5.724,2.37
			c0.628,0.246,1.264,0.516,1.889,0.759c1.968,0.787,3.886,1.532,5.792,2.253c0.527,0.202,1.084,0.414,1.62,0.616
			c1.927,0.722,3.798,1.389,5.645,2.034c0.498,0.172,0.987,0.351,1.476,0.523c1.842,0.635,3.642,1.217,5.403,1.782
			c0.451,0.139,0.906,0.298,1.354,0.432c1.754,0.552,3.429,1.037,5.105,1.506c0.407,0.121,0.831,0.25,1.234,0.359
			c1.915,0.523,3.768,0.992,5.548,1.398c0.097,0.031,0.197,0.056,0.301,0.08c9.515,2.173,13.884,0.831,16.141-2.676
			c0.758-1.162,1.275-2.566,1.67-4.16c1.102-4.434,1.323-9.322,1.57-14.478c0.521-11.233,1.12-23.96,12.182-32.28
			c9.928-7.492,23.647-9.33,35.788-4.818c12.134,4.723,21.16,15.211,23.611,27.412c2.726,13.563-5.281,23.474-12.355,32.216
			c-2.25,2.776-4.406,5.452-6.23,8.174c24.517-0.364,49.23,1.193,73.943,4.74c0.248-0.577,0.487-1.164,0.733-1.741
			c0.401-0.953,0.793-1.908,1.209-2.846c0.736-1.673,1.505-3.301,2.279-4.917c0.354-0.773,0.698-1.548,1.064-2.302
			c1.146-2.335,2.313-4.612,3.505-6.787c2.704-4.922,11.147-20.583,27.645-11.984"/>
		<path fill="#1D1D3F" d="M940.667,269.823c1.1-4.43,1.332-9.311,1.576-14.472c0.524-11.231,1.123-23.959,12.176-32.283
			c9.935-7.489,23.656-9.323,35.797-4.814c12.117,4.715,21.141,15.204,23.6,27.407c2.746,13.571-5.278,23.476-12.341,32.221
			c-3.252,4.013-6.325,7.816-8.454,11.859c-3.053,5.813-2.648,10.673,8.768,16.945c1.667,0.917,3.458,1.847,5.317,2.769
			c0.494,0.245,1.039,0.492,1.553,0.74c1.425,0.687,2.86,1.375,4.393,2.068c0.595,0.277,1.236,0.546,1.858,0.819
			c1.508,0.667,3.028,1.333,4.613,2c0.668,0.277,1.384,0.563,2.068,0.846c1.616,0.657,3.23,1.311,4.916,1.965
			c0.733,0.283,1.5,0.57,2.251,0.854c1.69,0.646,3.405,1.285,5.165,1.921c0.826,0.302,1.682,0.602,2.532,0.903
			c1.712,0.604,3.453,1.218,5.221,1.813c0.979,0.329,1.953,0.649,2.939,0.975c1.694,0.557,3.403,1.123,5.13,1.666
			c1.148,0.368,2.313,0.729,3.479,1.094c0.926,0.286,1.862,0.56,2.797,0.849c0.149-0.527,0.338-1.097,0.5-1.626
			c0.271-0.896,0.554-1.8,0.834-2.721c0.444-1.375,0.875-2.768,1.338-4.193c0.318-0.996,0.647-1.986,0.978-2.992
			c0.475-1.448,0.966-2.897,1.471-4.361c0.347-1.039,0.704-2.047,1.069-3.09c0.516-1.49,1.063-2.987,1.613-4.5
			c0.375-1.04,0.749-2.082,1.146-3.127c0.565-1.532,1.161-3.05,1.77-4.575c0.401-1.016,0.788-2.033,1.196-3.041
			c0.632-1.585,1.3-3.13,1.963-4.687c0.406-0.937,0.79-1.893,1.207-2.812c0.737-1.669,1.5-3.292,2.266-4.916
			c0.362-0.771,0.714-1.559,1.085-2.318c1.148-2.345,2.31-4.623,3.509-6.81c2.704-4.921,11.115-20.613,27.656-11.981
			c2.192,1.142,4.261,2.535,6.292,3.998c-46.847-67.797-107.684-126.559-180.283-171.449c-0.192,0.537-0.396,1.067-0.596,1.6
			c-0.571,1.495-1.154,2.974-1.731,4.473c-0.41,1.049-0.816,2.088-1.231,3.138c-0.631,1.521-1.265,3.027-1.906,4.534
			c-0.422,0.978-0.834,1.96-1.255,2.932c-0.716,1.63-1.465,3.207-2.207,4.79c-0.38,0.796-0.746,1.615-1.119,2.401
			c-1.138,2.332-2.308,4.602-3.503,6.771c-2.704,4.924-11.207,20.627-27.645,11.993c-4.746-2.498-9.03-5.961-13.172-9.311
			c-8.481-6.857-16.757-12.523-25.631-10.744c-9.544,1.93-17.796,9.065-21.511,18.627c-3.559,9.561-2.136,20.374,3.717,28.151
			c5.448,7.229,15.396,8.5,26.291,9.015c5.319,0.244,10.82,0.504,16.026,1.799c18.012,4.499,13.939,21.853,12.69,27.328
			c-0.55,2.418-1.187,4.894-1.889,7.393c-0.253,0.888-0.535,1.793-0.81,2.691c-0.475,1.625-0.955,3.25-1.484,4.896
			c-0.336,1.077-0.701,2.145-1.072,3.217c-0.46,1.348-0.913,2.696-1.383,4.044c20.857,14.536,40.313,30.6,58.274,47.982
			C940.544,270.267,940.61,270.05,940.667,269.823z"/>
		<path fill="#1D1D3F" d="M206.065,1017.267c3.541-9.56,2.131-20.37-3.731-28.163c-5.44-7.222-15.399-8.484-26.281-8.995
			c-5.322-0.248-10.834-0.514-16.029-1.801c-0.355-0.09-0.654-0.212-1-0.314c-0.733-0.215-1.468-0.421-2.125-0.676
			c-14.378-5.634-10.742-21.208-9.574-26.343c0.555-2.424,1.201-4.899,1.893-7.405c0.248-0.885,0.538-1.78,0.808-2.662
			c0.48-1.641,0.958-3.273,1.482-4.928c0.354-1.078,0.735-2.148,1.094-3.232c0.497-1.484,0.994-2.954,1.517-4.434
			c0.398-1.152,0.829-2.287,1.256-3.432c0.517-1.416,1.044-2.825,1.579-4.228c0.442-1.144,0.893-2.271,1.332-3.404
			c0.558-1.384,1.111-2.757,1.669-4.116c0.449-1.104,0.904-2.174,1.354-3.252c0.576-1.379,1.146-2.726,1.724-4.062
			c0.435-1.006,0.869-1.986,1.297-2.967c0.609-1.368,1.196-2.697,1.79-4.002c0.392-0.869,0.773-1.718,1.153-2.561
			c0.236-0.516,0.485-1.074,0.717-1.579c-0.849-0.391-1.703-0.782-2.55-1.17c-1.2-0.546-2.408-1.097-3.603-1.629
			c-1.419-0.633-2.823-1.245-4.224-1.854c-1.24-0.528-2.486-1.071-3.717-1.589c-1.306-0.549-2.591-1.078-3.881-1.608
			c-1.265-0.514-2.535-1.039-3.779-1.532c-1.207-0.48-2.389-0.933-3.569-1.391c-1.267-0.484-2.546-0.98-3.783-1.441
			c-1.136-0.42-2.236-0.809-3.347-1.204c-1.218-0.435-2.448-0.88-3.635-1.288c-1.101-0.38-2.158-0.71-3.233-1.07
			c-1.131-0.368-2.289-0.758-3.389-1.098c-1.13-0.353-2.198-0.649-3.287-0.964c-0.976-0.287-1.978-0.588-2.923-0.851
			c-1.984-0.537-3.904-1.03-5.742-1.448c-12.656-2.895-16.273,0.642-17.813,6.839c-1.105,4.437-1.335,9.309-1.573,14.474
			c-0.433,9.338-1.01,19.692-7.528,27.708c22.946,38.646,50.039,74.937,81.192,107.918c5.54,3.476,11.099,5.546,16.935,4.374
			C194.094,1033.972,202.331,1026.833,206.065,1017.267z"/>
		<path fill="#1D1D3F" d="M1182.596,824.082c-1.319,0.685-2.722,1.262-4.321,1.604c-3.986,0.872-8.847,0.661-14.538-0.643
			c-1.896-0.434-3.9-0.936-5.956-1.498c-0.92-0.244-1.886-0.539-2.825-0.821c-1.196-0.345-2.382-0.668-3.625-1.057
			c-1.024-0.317-2.097-0.681-3.148-1.021c-1.237-0.405-2.448-0.788-3.71-1.224c-1.057-0.354-2.147-0.754-3.228-1.14
			c-1.338-0.471-2.663-0.942-4.039-1.448c-1.043-0.39-2.095-0.797-3.155-1.199c-1.481-0.568-2.961-1.14-4.475-1.739
			c-1.008-0.397-2.044-0.828-3.094-1.255c-1.582-0.64-3.164-1.294-4.781-1.979c-1.028-0.429-2.062-0.882-3.113-1.332
			c-1.662-0.716-3.317-1.437-5.006-2.192c-1.052-0.469-2.109-0.954-3.158-1.427c-0.98-0.444-1.962-0.873-2.945-1.332
			c-0.23,0.502-0.46,0.976-0.685,1.486c-0.386,0.839-0.786,1.706-1.166,2.58c-0.577,1.252-1.146,2.539-1.721,3.845
			c-0.433,0.974-0.856,1.965-1.287,2.96c-0.56,1.284-1.119,2.596-1.668,3.912c-0.45,1.061-0.892,2.119-1.337,3.204
			c-0.536,1.31-1.072,2.641-1.597,3.984c-0.448,1.111-0.89,2.219-1.317,3.342c-0.526,1.355-1.031,2.707-1.541,4.063
			c-0.406,1.135-0.836,2.258-1.233,3.388c-0.495,1.406-0.967,2.804-1.449,4.2c-0.354,1.081-0.737,2.166-1.076,3.246
			c-0.509,1.552-0.966,3.082-1.413,4.628c-0.274,0.901-0.557,1.809-0.811,2.707c-0.681,2.415-1.293,4.804-1.826,7.127
			c-2.835,12.416,0.68,15.61,4.893,17.212c0.602,0.228,1.25,0.432,1.937,0.6c4.436,1.107,9.312,1.327,14.476,1.567
			c6.746,0.317,13.729,0.647,20.063,3.058c5.04,1.917,9.053,4.902,12.223,9.118c2.73,3.635,4.699,7.776,5.88,12.146
			c12.809-23.633,24.34-48.269,34.153-74.067C1181.557,827.152,1182.025,825.613,1182.596,824.082z"/>
		<path fill="#1D1D3F" d="M157.126,208.874c1.681,0.534,3.366,1.076,5.117,1.677c0.607,0.215,1.25,0.446,1.872,0.666
			c1.786,0.622,3.59,1.27,5.437,1.955c0.646,0.244,1.319,0.502,1.974,0.751c1.854,0.706,3.732,1.425,5.645,2.186
			c0.695,0.277,1.407,0.571,2.108,0.856c1.906,0.775,3.829,1.568,5.78,2.393c0.774,0.327,1.557,0.667,2.334,0.999
			c1.861,0.806,3.736,1.619,5.63,2.463c0.983,0.439,1.968,0.897,2.959,1.34c1.005,0.454,1.997,0.891,3.018,1.368
			c0.237-0.5,0.458-0.98,0.689-1.488c0.383-0.839,0.778-1.708,1.168-2.577c0.567-1.259,1.142-2.538,1.716-3.845
			c0.43-0.976,0.86-1.96,1.298-2.958c0.553-1.29,1.107-2.602,1.661-3.918c0.449-1.057,0.888-2.12,1.332-3.202
			c0.542-1.31,1.072-2.641,1.604-3.98c0.44-1.113,0.884-2.221,1.316-3.347c0.521-1.349,1.026-2.71,1.526-4.068
			c0.42-1.125,0.843-2.254,1.248-3.38c0.498-1.403,0.961-2.805,1.437-4.203c0.37-1.081,0.748-2.165,1.092-3.237
			c0.504-1.559,0.958-3.098,1.409-4.628c0.266-0.901,0.559-1.816,0.81-2.716c0.681-2.412,1.3-4.799,1.829-7.124
			c0.354-1.549,0.607-2.962,0.778-4.236c1.164-8.956-1.989-11.576-5.676-12.979c-0.601-0.228-1.244-0.43-1.941-0.602
			c-1.111-0.274-2.328-0.38-3.49-0.555c-19.608,17.097-38.18,35.518-55.589,55.182c0.692,0.207,1.364,0.395,2.072,0.614
			C155.889,208.467,156.52,208.683,157.126,208.874z"/>
		<path fill="#1D1D3F" d="M445.487,166.791c0.503-2.133,1.061-4.291,1.667-6.486c0.25-0.891,0.542-1.792,0.815-2.688
			c0.469-1.628,0.951-3.255,1.474-4.904c0.355-1.079,0.739-2.158,1.09-3.245c0.5-1.475,1.001-2.946,1.522-4.422
			c0.398-1.158,0.831-2.291,1.256-3.429c0.519-1.423,1.045-2.828,1.579-4.232c0.445-1.146,0.892-2.267,1.331-3.398
			c0.56-1.389,1.11-2.759,1.67-4.123c0.448-1.103,0.904-2.175,1.355-3.259c0.572-1.366,1.144-2.711,1.721-4.047
			c0.437-1.01,0.872-1.999,1.302-2.981c0.604-1.355,1.184-2.667,1.771-3.976c0.402-0.879,0.795-1.745,1.178-2.606
			c0.232-0.506,0.478-1.05,0.704-1.544c-0.896-0.42-1.798-0.842-2.698-1.246c-1.061-0.486-2.13-0.965-3.179-1.437
			c-1.877-0.833-3.73-1.644-5.562-2.434c-0.705-0.303-1.412-0.604-2.104-0.909c-2.072-0.869-4.107-1.709-6.107-2.517
			c-0.501-0.203-1.011-0.415-1.509-0.608c-2.07-0.833-4.098-1.616-6.101-2.378c-0.451-0.166-0.911-0.346-1.353-0.514
			c-1.959-0.728-3.859-1.407-5.732-2.06c-0.472-0.171-0.961-0.349-1.432-0.506c-1.789-0.619-3.518-1.18-5.229-1.728
			c-0.507-0.161-1.034-0.342-1.532-0.491c-1.702-0.53-3.322-0.999-4.938-1.452c-0.453-0.124-0.922-0.279-1.37-0.396
			c-2.012-0.552-3.956-1.044-5.812-1.469c-12.698-2.901-16.235,0.466-17.814,6.839c-1.105,4.438-1.335,9.311-1.58,14.483
			c-0.518,11.228-1.11,23.956-12.17,32.278c-9.617,7.239-22.766,9.148-34.617,5.176c-0.391-0.134-0.789-0.218-1.181-0.355
			l-0.004-0.001l-0.025-0.011l-0.03-0.01c-10.4-4.061-18.519-12.424-22.139-22.469c-0.583-1.602-1.068-3.246-1.409-4.927
			c-2.73-13.557,5.278-23.462,12.35-32.207c3.257-4.026,6.329-7.821,8.451-11.871c0.38-0.729,0.708-1.436,0.969-2.139
			c1.293-3.503,0.864-6.758-3.121-10.334c-0.045-0.04-0.109-0.081-0.154-0.121c-43.693,21.726-84.827,48.657-122.394,80.343
			c2.32,0.807,4.25,1.825,5.774,3.039c8.635,6.882,5.763,19.16,4.741,23.613c-0.552,2.42-1.192,4.905-1.893,7.408
			c-0.224,0.797-0.486,1.619-0.722,2.424c-0.506,1.722-1.019,3.439-1.574,5.183c-0.317,0.986-0.657,1.959-0.987,2.929
			c-0.537,1.597-1.064,3.186-1.631,4.772c-0.377,1.047-0.765,2.088-1.147,3.124c-0.555,1.513-1.118,3.024-1.691,4.528
			c-0.42,1.08-0.839,2.14-1.273,3.213c-0.565,1.44-1.134,2.864-1.707,4.272c-0.448,1.09-0.896,2.149-1.342,3.214
			c-0.575,1.362-1.146,2.706-1.713,4.031c-0.461,1.053-0.906,2.083-1.356,3.117c-0.552,1.249-1.094,2.47-1.643,3.67
			c-0.466,1.049-0.931,2.071-1.392,3.082c-0.194,0.414-0.395,0.876-0.589,1.286c0.433,0.198,0.862,0.399,1.289,0.595
			c4.076,1.865,8.096,3.659,12.014,5.326c0.475,0.202,0.932,0.386,1.41,0.583c3.56,1.495,7.042,2.892,10.448,4.207
			c0.856,0.328,1.731,0.677,2.568,0.994c0.855,0.324,1.671,0.61,2.51,0.918c1.678,0.618,3.369,1.237,4.995,1.799
			c0.597,0.205,1.158,0.385,1.745,0.583c1.758,0.59,3.511,1.181,5.191,1.704c0.701,0.222,1.359,0.397,2.055,0.609
			c1.484,0.446,2.982,0.9,4.4,1.292c2.09,0.575,4.112,1.081,6.038,1.526c12.698,2.903,16.232-0.461,17.817-6.838
			c1.105-4.437,1.333-9.313,1.573-14.481c0.528-11.231,1.125-23.957,12.177-32.274c9.932-7.48,23.648-9.327,35.801-4.82
			c1.517,0.586,2.982,1.271,4.392,2.033c8.763,4.73,15.384,12.632,18.277,21.792C380.622,195.084,412.341,179.101,445.487,166.791z"
			/>
		<path fill="#1D1D3F" d="M1202.924,552.886c-0.406,0.84-0.802,1.716-1.196,2.571c-0.689,1.439-1.366,2.893-2.018,4.396
			c-0.466,1.026-0.896,2.09-1.353,3.137c-0.568,1.362-1.146,2.722-1.709,4.101c-0.454,1.109-0.88,2.234-1.328,3.349
			c-0.519,1.349-1.047,2.703-1.55,4.058c-0.431,1.127-0.834,2.25-1.24,3.376c-0.498,1.353-0.981,2.702-1.453,4.039
			c-0.389,1.104-0.762,2.19-1.127,3.279c-0.467,1.349-0.92,2.7-1.356,4.033c-0.341,1.036-0.68,2.055-1.004,3.07
			c-0.442,1.358-0.869,2.692-1.272,4.015c-0.295,0.905-0.571,1.818-0.84,2.702c-0.171,0.53-0.318,1.04-0.478,1.567
			c0.581,0.168,1.11,0.362,1.69,0.536c4.178,1.285,8.297,2.584,12.244,3.921c0.802,0.269,1.579,0.55,2.371,0.829
			c3.335,1.136,6.543,2.291,9.673,3.463c0.681,0.253,1.432,0.495,2.103,0.751c0.475,0.18,0.901,0.365,1.37,0.546
			c0.519,0.199,1.002,0.394,1.511,0.594c1.609,0.63,3.254,1.27,4.791,1.897c0.041-25.813-1.574-51.472-4.775-76.85
			c-2.855,0.756-6.02,3.416-9.684,10.083C1205.152,548.439,1204.02,550.633,1202.924,552.886z"/>
		<path fill="#1D1D3F" d="M594.313,137.064c2.492-4.745,5.96-9.04,9.31-13.177c6.829-8.438,12.735-15.734,10.735-25.617
			c-1.921-9.56-9.059-17.809-18.618-21.531c-9.557-3.549-20.365-2.127-28.149,3.742c-8.066,6.052-8.495,15.423-9.011,26.269
			c-0.251,5.319-0.51,10.833-1.803,16.026c-0.357,1.489-0.841,2.858-1.392,4.105c-2.26,4.99-6.065,8.072-11.393,9.238
			c-0.491,0.108-1.071,0.111-1.587,0.186c-0.881,0.128-1.744,0.291-2.698,0.323c-0.784,0.021-1.668-0.072-2.508-0.114
			c-0.777-0.036-1.508,0-2.342-0.1c-0.383-0.042-0.813-0.151-1.211-0.209c-1.352-0.193-2.726-0.396-4.206-0.732
			c-1.916-0.436-3.907-0.932-5.972-1.498c-0.86-0.235-1.786-0.519-2.685-0.778c-1.24-0.358-2.472-0.697-3.75-1.102
			c-1.008-0.305-2.053-0.665-3.075-0.991c-1.243-0.408-2.504-0.804-3.786-1.245c-1.04-0.356-2.133-0.75-3.196-1.128
			c-1.346-0.481-2.674-0.95-4.062-1.463c-1.038-0.386-2.101-0.8-3.156-1.202c-1.476-0.56-2.951-1.133-4.46-1.729
			c-1.034-0.41-2.079-0.839-3.108-1.258c-1.572-0.644-3.154-1.292-4.758-1.971c-1.051-0.437-2.123-0.906-3.188-1.367
			c-1.629-0.706-3.261-1.417-4.92-2.152c-1.089-0.485-2.191-0.984-3.296-1.492c-0.954-0.436-1.883-0.842-2.834-1.283
			c-0.397,0.843-0.786,1.699-1.17,2.528c-0.556,1.229-1.119,2.451-1.66,3.665c-0.637,1.464-1.269,2.905-1.893,4.346
			c-0.509,1.18-1.027,2.368-1.523,3.532c-0.612,1.447-1.184,2.855-1.759,4.272c-0.459,1.124-0.933,2.253-1.36,3.355
			c-0.571,1.421-1.107,2.81-1.635,4.201c-0.401,1.049-0.816,2.105-1.193,3.136c-0.53,1.41-1.008,2.772-1.497,4.133
			c-0.336,0.963-0.691,1.938-1.01,2.871c-0.492,1.417-0.925,2.792-1.364,4.16c-0.274,0.819-0.56,1.668-0.804,2.474
			c-0.466,1.485-0.869,2.912-1.271,4.332c-0.171,0.563-0.348,1.153-0.51,1.716c44.646-15.563,91.705-24.552,139.648-26.222
			C594.237,137.229,594.269,137.148,594.313,137.064z"/>
		<path fill="#1D1D3F" d="M24.412,745.541c4.746,2.492,9.035,5.957,13.183,9.313c1.323,1.069,2.643,2.093,3.955,3.081
			c7.11,5.332,14.164,9.156,21.65,7.654c9.56-1.923,17.81-9.056,21.534-18.616c3.553-9.565,2.127-20.376-3.735-28.163
			c-2.042-2.71-4.721-4.581-7.84-5.898c-5.196-2.173-11.633-2.79-18.428-3.107c-5.332-0.246-10.839-0.508-16.042-1.795
			c-6.747-1.69-10.391-5.187-12.248-9.194c-2.743-5.903-1.595-12.875-0.75-16.778c0.115-0.505,0.215-0.98,0.307-1.365
			c0.018-0.083,0.042-0.167,0.064-0.252c0.534-2.339,1.15-4.722,1.829-7.135c0.249-0.901,0.543-1.817,0.812-2.731
			c0.471-1.616,0.948-3.226,1.476-4.857c0.343-1.068,0.716-2.146,1.08-3.222c0.496-1.491,1-2.977,1.53-4.463
			c0.402-1.133,0.825-2.261,1.24-3.395c0.53-1.417,1.048-2.827,1.587-4.232c0.451-1.168,0.905-2.322,1.368-3.478
			c0.54-1.344,1.072-2.687,1.614-4.014c0.475-1.15,0.94-2.273,1.417-3.406c0.545-1.299,1.093-2.591,1.641-3.854
			c0.471-1.096,0.937-2.162,1.407-3.226c0.542-1.23,1.074-2.426,1.609-3.609c0.473-1.058,0.937-2.084,1.404-3.095
			c0.193-0.422,0.394-0.875,0.588-1.282c-0.918-0.429-1.841-0.855-2.749-1.27c-1.047-0.48-2.09-0.953-3.125-1.413
			c-1.775-0.796-3.535-1.563-5.279-2.314c-0.822-0.357-1.646-0.71-2.466-1.058c-1.846-0.786-3.671-1.535-5.483-2.274
			c-0.725-0.286-1.461-0.595-2.183-0.884c-1.791-0.707-3.535-1.385-5.279-2.047c-0.728-0.277-1.467-0.563-2.178-0.831
			c-1.652-0.613-3.255-1.185-4.854-1.754c-0.757-0.264-1.532-0.545-2.274-0.806c-1.485-0.504-2.905-0.964-4.331-1.421
			c-0.799-0.261-1.635-0.542-2.429-0.792c-1.294-0.397-2.523-0.749-3.771-1.106c-0.349,46.278,4.683,92.069,14.575,136.595
			C17.676,742.99,20.846,743.667,24.412,745.541z"/>
		<path fill="#1D1D3F" d="M1199.275,772.42c-4.997,5.409-5.811,12.765-6.255,21.126
			C1195.232,786.521,1197.333,779.475,1199.275,772.42z"/>
		<path fill="#1D1D3F" d="M9.411,600.915c1.185,0.384,2.354,0.751,3.571,1.169c1.205,0.413,2.451,0.869,3.687,1.308
			c1.162,0.416,2.308,0.816,3.499,1.248c1.277,0.482,2.588,0.986,3.892,1.486c1.202,0.469,2.398,0.923,3.624,1.408
			c1.305,0.52,2.637,1.065,3.965,1.612c1.293,0.527,2.572,1.052,3.874,1.603c1.303,0.549,2.616,1.121,3.93,1.683
			c1.389,0.603,2.784,1.214,4.193,1.835c1.25,0.559,2.511,1.131,3.77,1.705c0.875,0.396,1.738,0.777,2.619,1.184
			c0.229-0.498,0.453-0.966,0.683-1.468c0.387-0.853,0.78-1.722,1.175-2.6c0.565-1.252,1.139-2.528,1.711-3.832
			c0.432-0.979,0.863-1.969,1.302-2.968c0.55-1.281,1.105-2.589,1.655-3.904c0.45-1.058,0.893-2.13,1.336-3.216
			c0.541-1.305,1.071-2.632,1.602-3.968c0.439-1.113,0.887-2.227,1.318-3.353c0.521-1.348,1.026-2.711,1.528-4.072
			c0.418-1.124,0.842-2.25,1.246-3.379c0.496-1.398,0.969-2.809,1.44-4.205c0.37-1.081,0.742-2.158,1.088-3.23
			c0.505-1.565,0.958-3.1,1.413-4.656c0.268-0.893,0.557-1.796,0.802-2.683c0.682-2.417,1.302-4.802,1.831-7.128
			c2.834-12.418-0.676-15.607-4.894-17.212c-0.604-0.228-1.25-0.428-1.947-0.6c-4.432-1.105-9.315-1.338-14.48-1.576
			c-6.742-0.312-13.712-0.647-20.049-3.058c-5.053-1.922-9.055-4.902-12.224-9.118c-5.231-6.948-7.644-15.743-7.119-24.55
			c-5.374,30.625-8.368,61.294-9.012,91.807c0.586,0.162,1.223,0.361,1.829,0.538c1.297,0.37,2.579,0.727,3.925,1.143
			C7.24,600.193,8.339,600.567,9.411,600.915z"/>
		<path fill="#1D1D3F" d="M39.171,471.519c5.17-1.045,10.142-0.613,15.193,1.308c6.336,2.412,11.767,6.802,17.014,11.046
			c4.025,3.255,7.82,6.335,11.868,8.453c0.629,0.333,1.245,0.611,1.846,0.84c4.217,1.604,8.964,1.552,15.1-9.607
			c1.15-2.089,2.271-4.284,3.367-6.54c0.412-0.839,0.796-1.708,1.2-2.56c0.683-1.458,1.364-2.9,2.023-4.398
			c0.456-1.033,0.896-2.097,1.336-3.147c0.573-1.361,1.158-2.713,1.719-4.095c0.448-1.112,0.879-2.235,1.315-3.358
			c0.53-1.35,1.056-2.693,1.564-4.054c0.423-1.125,0.828-2.248,1.238-3.373c0.492-1.354,0.981-2.705,1.447-4.041
			c0.389-1.106,0.766-2.189,1.134-3.28c0.461-1.351,0.917-2.698,1.361-4.028c0.334-1.033,0.67-2.058,0.997-3.071
			c0.439-1.358,0.86-2.7,1.273-4.014c0.286-0.912,0.569-1.822,0.841-2.706c0.163-0.532,0.316-1.034,0.471-1.567
			c-4.042-1.223-7.95-2.478-11.779-3.746c-0.615-0.199-1.222-0.404-1.821-0.608c-4.661-1.564-9.136-3.158-13.412-4.768
			c-0.339-0.13-0.721-0.252-1.06-0.38c-0.557-0.212-1.061-0.426-1.612-0.637c-1.319-0.509-2.609-1.022-3.885-1.536
			c-1.223-0.494-2.445-0.987-3.621-1.476c-1.157-0.491-2.267-0.967-3.383-1.46c-1.15-0.49-2.314-0.989-3.41-1.495
			c-1.209-0.548-2.345-1.09-3.493-1.64c-0.891-0.43-1.822-0.852-2.679-1.276c-1.967-0.98-3.852-1.956-5.62-2.927
			c-8.528-4.685-13.298-10.08-14.292-16.114c-0.598-3.619,0.168-7.467,2.292-11.54c2.495-4.745,5.966-9.026,9.318-13.176
			c4.267-5.271,8.172-10.099,10.018-15.393c1.109-3.173,1.469-6.515,0.719-10.22c-0.769-3.835-2.406-7.434-4.668-10.635
			c-10.738,20.695-20.516,42.114-29,64.418c-12.801,33.658-22.23,67.76-28.811,101.973c0.168-0.521,0.28-1.055,0.472-1.562
			C16.465,482.999,26.966,473.98,39.171,471.519z"/>
		<path fill="#1D1D3F" d="M1103.15,948.708c-6.334-2.41-11.767-6.792-17.013-11.04c-4.021-3.257-7.821-6.329-11.872-8.447
			c-0.639-0.337-1.244-0.615-1.844-0.843c-4.22-1.604-8.962-1.545-15.096,9.608c-0.047,0.062-0.077,0.145-0.115,0.221
			c-1.107,2.023-2.197,4.133-3.255,6.314c-0.406,0.834-0.805,1.717-1.199,2.578c-0.689,1.442-1.367,2.892-2.016,4.388
			c-0.465,1.027-0.896,2.085-1.349,3.132c-0.572,1.368-1.149,2.728-1.712,4.103c-0.454,1.111-0.881,2.234-1.325,3.348
			c-0.521,1.352-1.05,2.71-1.553,4.063c-0.431,1.126-0.837,2.257-1.24,3.382c-0.501,1.35-0.981,2.694-1.449,4.026
			c-0.393,1.107-0.769,2.203-1.135,3.295c-0.463,1.341-0.916,2.693-1.353,4.02c-0.341,1.033-0.681,2.059-1.008,3.079
			c-0.438,1.354-0.865,2.686-1.267,4.002c-0.297,0.913-0.573,1.827-0.848,2.724c-0.168,0.525-0.313,1.024-0.472,1.549
			c0.528,0.153,0.99,0.32,1.506,0.479c4.339,1.328,8.6,2.678,12.705,4.069c0.431,0.143,0.846,0.294,1.279,0.443
			c3.862,1.314,7.583,2.658,11.178,4.003c0.452,0.172,0.953,0.334,1.407,0.507c0.318,0.12,0.593,0.242,0.911,0.363
			c1.236,0.475,2.415,0.952,3.623,1.433c1.35,0.537,2.733,1.078,4.033,1.624c1.06,0.438,2.062,0.886,3.09,1.325
			c0.029,0.011,0.067,0.026,0.067,0.026c15.198-17.834,29.366-36.7,42.531-56.466c-0.012,0.002-0.015,0.006-0.023,0.007
			C1113.171,951.062,1108.19,950.625,1103.15,948.708z"/>
		<path fill="#1D1D3F" d="M870.645,1011.949c7.478,9.936,9.324,23.649,4.819,35.799c-4.731,12.129-15.224,21.153-27.424,23.602
			c-5.179,1.046-10.141,0.615-15.201-1.31c-6.325-2.405-11.764-6.802-17.004-11.047c-4.016-3.247-7.815-6.32-11.866-8.446
			c-0.64-0.334-1.246-0.611-1.845-0.838c-3.682-1.401-7.763-1.528-12.8,5.828c-0.748,1.102-1.499,2.326-2.298,3.772
			c-0.916,1.649-1.814,3.418-2.736,5.27c-0.354,0.688-0.702,1.445-1.043,2.164c-0.577,1.202-1.149,2.392-1.729,3.66
			c-0.419,0.914-0.83,1.896-1.252,2.857c-0.507,1.166-1.01,2.312-1.521,3.524c-0.433,1.032-0.866,2.113-1.302,3.178
			c-0.497,1.234-0.993,2.452-1.494,3.724c-0.438,1.118-0.866,2.277-1.297,3.43c-0.485,1.298-0.975,2.584-1.467,3.918
			c-0.433,1.186-0.86,2.405-1.28,3.628c-0.489,1.387-0.987,2.77-1.462,4.195c-0.412,1.221-0.825,2.47-1.243,3.71
			c-0.48,1.48-0.963,2.963-1.449,4.47c-0.403,1.267-0.805,2.56-1.199,3.859c-0.277,0.879-0.541,1.76-0.811,2.646
			c0.524,0.157,1.017,0.331,1.529,0.492c4.304,1.311,8.523,2.651,12.574,4.025c0.562,0.188,1.087,0.376,1.638,0.57
			c3.659,1.246,7.186,2.516,10.593,3.803c0.558,0.199,1.168,0.399,1.722,0.61c0.389,0.146,0.748,0.299,1.137,0.447
			c0.872,0.34,1.708,0.678,2.558,1.017c1.726,0.682,3.437,1.353,5.065,2.039c0.641,0.259,1.229,0.528,1.845,0.785
			c1.725,0.734,3.45,1.467,5.073,2.205c0.72,0.323,1.37,0.649,2.077,0.978c1.435,0.667,2.878,1.332,4.228,2.001
			c2.009,0.997,3.924,1.989,5.732,2.979c13.652,7.491,17.676,16.798,11.99,27.657c-2.498,4.745-5.963,9.022-9.315,13.173
			c-2.542,3.137-4.94,6.116-6.872,9.132c50.484-18.244,98.539-42.94,142.705-73.713c-2.139-0.172-4.316-0.293-6.572-0.4
			c-6.743-0.319-13.72-0.645-20.045-3.05l-0.012-0.005c-5.04-1.918-9.043-4.897-12.216-9.127c-7.486-9.929-9.33-23.647-4.829-35.798
			c4.733-12.128,15.225-21.149,27.424-23.601c5.179-1.046,10.14-0.615,15.189,1.306l0.012,0.005
			c6.325,2.405,11.758,6.792,17.008,11.042c4.018,3.252,7.818,6.323,11.868,8.45c0.64,0.329,1.243,0.612,1.851,0.846
			c1.582,0.6,3.232,0.962,5.02,0.604c2.946-0.611,6.243-3.243,10.07-10.222c1.148-2.095,2.279-4.291,3.379-6.548
			c0.394-0.82,0.783-1.686,1.175-2.525c0.693-1.456,1.376-2.917,2.033-4.433c0.459-1.025,0.893-2.085,1.35-3.128
			c0.568-1.368,1.145-2.726,1.708-4.104c0.45-1.113,0.881-2.24,1.326-3.354c0.521-1.349,1.052-2.701,1.55-4.055
			c0.429-1.13,0.839-2.253,1.239-3.385c0.504-1.348,0.984-2.691,1.455-4.034c0.389-1.099,0.76-2.182,1.126-3.276
			c0.466-1.352,0.925-2.707,1.37-4.04c0.338-1.026,0.672-2.047,0.992-3.054c0.441-1.371,0.876-2.716,1.282-4.045
			c0.292-0.896,0.564-1.789,0.821-2.663c0.178-0.537,0.324-1.052,0.489-1.585c-3.986-1.208-7.833-2.443-11.601-3.686
			c-0.749-0.254-1.497-0.499-2.246-0.753c-4.472-1.51-8.797-3.047-12.911-4.593c-0.434-0.165-0.911-0.318-1.335-0.479
			c-0.701-0.268-1.331-0.533-2.024-0.799c-1.004-0.389-1.976-0.783-2.966-1.172c-1.479-0.596-2.964-1.188-4.375-1.784
			c-0.901-0.377-1.762-0.756-2.637-1.131c-1.364-0.594-2.728-1.188-4.021-1.772c-1.025-0.46-1.972-0.922-2.944-1.38
			c-1.061-0.502-2.141-0.999-3.152-1.507c-1.949-0.964-3.814-1.927-5.563-2.888c-13.655-7.502-17.676-16.809-12-27.662
			c2.502-4.74,5.963-9.028,9.318-13.173c6.324-7.819,11.832-14.657,11.044-23.47c-31.551,38.777-68.731,71.855-109.837,98.478
			C869.461,1010.48,870.072,1011.188,870.645,1011.949z"/>
		<path fill="#1D1D3F" d="M1068.777,1012.169c-1.88-0.775-3.785-1.541-5.766-2.313c-0.419-0.159-0.843-0.315-1.27-0.48
			c-2.036-0.776-4.106-1.556-6.234-2.32c-0.453-0.167-0.928-0.331-1.381-0.487c-2.109-0.759-4.248-1.505-6.438-2.245
			c-0.625-0.211-1.26-0.417-1.883-0.627c-1.991-0.663-4.003-1.314-6.056-1.965c-0.981-0.315-1.969-0.618-2.952-0.926
			c-1.017-0.314-2.045-0.621-3.067-0.928c-0.136,0.432-0.276,0.906-0.415,1.349c-0.324,1.064-0.666,2.139-1.008,3.247
			c-0.389,1.239-0.786,2.486-1.199,3.764c-0.354,1.108-0.716,2.213-1.087,3.348c-0.436,1.307-0.887,2.636-1.343,3.969
			c-0.392,1.166-0.79,2.313-1.205,3.486c-0.478,1.353-0.964,2.712-1.461,4.073c-0.428,1.169-0.849,2.335-1.284,3.508
			c-0.524,1.409-1.079,2.809-1.636,4.213c-0.437,1.129-0.872,2.25-1.317,3.365c-0.595,1.464-1.214,2.905-1.832,4.351
			c-0.439,1.045-0.868,2.102-1.329,3.126c-0.698,1.568-1.414,3.086-2.13,4.61c-0.408,0.859-0.792,1.741-1.21,2.577
			c-1.097,2.255-2.215,4.447-3.371,6.55c-0.044,0.076-0.073,0.158-0.117,0.231c-1.688,3.071-5.62,10.339-12.358,13.263
			c-4.033,1.752-9.1,1.946-15.302-1.274c-4.742-2.496-9.032-5.96-13.174-9.319c-0.348-0.271-0.675-0.523-1.014-0.803
			c-8.131-6.476-16.084-11.636-24.593-9.923c-9.56,1.921-17.806,9.059-21.541,18.612c-3.538,9.563-2.118,20.378,3.748,28.164
			c5.429,7.232,15.38,8.498,26.263,9c5.123,0.241,10.404,0.533,15.445,1.704c36.807-26.684,70.854-57.473,101.209-92.205
			c-0.135-0.053-0.244-0.108-0.38-0.165C1069.667,1012.525,1069.205,1012.344,1068.777,1012.169z"/>
		<path fill="#1D1D3F" d="M196.667,844.349c-0.504,1.743-1.02,3.487-1.579,5.255c-0.315,0.952-0.646,1.898-0.968,2.853
			c-0.535,1.613-1.079,3.223-1.651,4.833c-0.367,1.043-0.755,2.066-1.139,3.104c-0.561,1.521-1.124,3.032-1.7,4.547
			c-0.42,1.071-0.844,2.138-1.262,3.208c-0.567,1.441-1.148,2.862-1.729,4.287c-0.429,1.068-0.881,2.114-1.314,3.172
			c-0.574,1.381-1.152,2.733-1.728,4.071c-0.461,1.047-0.908,2.072-1.358,3.097c-0.549,1.263-1.1,2.47-1.65,3.681
			c-0.455,1.053-0.922,2.063-1.384,3.075c-0.199,0.415-0.392,0.878-0.591,1.287c0.903,0.418,1.789,0.831,2.677,1.235
			c1.107,0.503,2.221,1.01,3.317,1.499c1.638,0.728,3.254,1.431,4.855,2.123c0.996,0.43,1.992,0.862,2.981,1.287
			c1.628,0.683,3.237,1.346,4.817,1.988c0.959,0.394,1.905,0.78,2.852,1.156c1.566,0.629,3.074,1.202,4.606,1.789
			c0.93,0.354,1.879,0.727,2.799,1.063c1.457,0.552,2.874,1.052,4.28,1.551c0.926,0.322,1.875,0.675,2.79,0.988
			c1.37,0.464,2.686,0.887,4.01,1.313c0.895,0.289,1.801,0.598,2.675,0.875c1.332,0.406,2.601,0.768,3.889,1.136
			c0.773,0.222,1.595,0.479,2.36,0.693c1.996,0.539,3.921,1.023,5.765,1.447c4.082,0.932,7.21,1.211,9.639,0.954
			c-17.373-21.311-32.793-44.042-46.164-67.881C196.73,844.14,196.698,844.244,196.667,844.349z"/>
		<path fill="#1D1D3F" d="M807.678,1043.479c4.743,2.49,9.029,5.954,13.181,9.312c8.472,6.859,16.744,12.518,25.614,10.738
			c9.561-1.924,17.81-9.058,21.532-18.617c3.551-9.566,2.128-20.375-3.735-28.163c-0.716-0.947-1.526-1.775-2.389-2.529
			c-17.485,10.898-35.642,20.648-54.354,29.186C807.578,1043.431,807.625,1043.453,807.678,1043.479z"/>
		<path fill="#1D1D3F" d="M703.851,1089.956c1.641,0.899,3.39,1.811,5.223,2.721c1.111,0.552,2.304,1.099,3.47,1.652
			c0.778,0.362,1.512,0.729,2.316,1.091c1.29,0.594,2.681,1.185,4.05,1.776c0.758,0.329,1.497,0.661,2.283,0.991
			c1.373,0.578,2.832,1.162,4.277,1.738c0.858,0.342,1.697,0.689,2.59,1.038c1.391,0.546,2.853,1.085,4.311,1.635
			c1.014,0.38,2.026,0.767,3.073,1.142c1.393,0.508,2.818,1.01,4.262,1.517c1.164,0.407,2.34,0.818,3.55,1.234
			c1.361,0.464,2.76,0.922,4.172,1.389c1.344,0.437,2.689,0.879,4.054,1.314c1.347,0.427,2.698,0.851,4.057,1.267
			c0.836,0.26,1.688,0.517,2.546,0.779c0.149-0.534,0.338-1.106,0.506-1.644c0.269-0.887,0.546-1.782,0.831-2.689
			c0.436-1.381,0.863-2.765,1.337-4.185c0.316-1.025,0.654-2.04,1.002-3.086c0.445-1.379,0.917-2.767,1.396-4.168
			c0.374-1.109,0.761-2.201,1.154-3.317c0.483-1.401,0.994-2.8,1.506-4.21c0.41-1.141,0.816-2.265,1.249-3.404
			c0.536-1.428,1.099-2.854,1.658-4.277c0.437-1.117,0.857-2.222,1.302-3.319c0.588-1.47,1.212-2.901,1.824-4.352
			c0.445-1.047,0.881-2.107,1.346-3.142c0.688-1.547,1.388-3.054,2.102-4.568c0.415-0.869,0.804-1.773,1.231-2.628
			c1.146-2.33,2.307-4.61,3.499-6.78c0.115-0.211,0.244-0.447,0.383-0.691c-28.063,10.77-57.163,18.901-86.914,24.214
			C693.746,1082.484,696.521,1085.93,703.851,1089.956z"/>
	</g>
	<path fill="#1D1D3F" d="M1146.184,360.677c-2.247,3.909-5.328,7.408-8.305,10.783c-6.042,6.874-11.271,12.825-9.877,21.178
		c1.328,8.085,7.139,15.22,15.137,18.635c8.012,3.264,17.222,2.398,24.015-2.288c7.023-4.846,8.148-15.552,8.915-24.646
		c0.358-4.466-6.797-16.847-9.201-22.642"/>
	<path fill="#1D1D3F" d="M1106.049,564.963c2.248-3.909,5.328-7.408,8.304-10.782c6.043-6.875,11.271-12.825,9.879-21.178
		c-1.33-8.085-7.139-15.219-15.138-18.635c-8.013-3.264-17.222-2.397-24.015,2.288c-7.023,4.847-6.458,15.909-4.551,30.348"/>
	<g>
		<path fill="none" d="M633.457,637.589l16.118,18.804l-15.985-18.903C633.545,637.522,633.5,637.557,633.457,637.589z"/>
		<g>
			<path fill="#7695A5" d="M636.444,588.265c6.2,5.886,10.087,14.185,10.087,23.41c0,10.568-5.097,19.922-12.941,25.815
				l15.985,18.903l195.868-247.254L636.444,588.265z"/>
		</g>
		<g>
			<path fill="#7695A5" d="M614.225,579.371c8.617,0,16.425,3.394,22.216,8.889l208.695-178.864L574.864,568.617l16.973,19.801
				C597.645,582.827,605.526,579.371,614.225,579.371z"/>
		</g>
		<path fill="#1D1D3F" d="M614.225,643.979c-17.844,0-32.306-14.462-32.306-32.304c0-9.143,3.812-17.381,9.917-23.257
			l-16.973-19.801L375.861,811.6l-0.303,0.26l274.016-155.467l-16.118-18.804C628.08,641.585,621.44,643.979,614.225,643.979z"/>
	</g>
</g>
</svg>
