<?xml version="1.0" encoding="utf-8"?>
<!-- Generator: Adobe Illustrator 18.1.1, SVG Export Plug-In . SVG Version: 6.00 Build 0)  -->
<svg version="1.1" id="Layer_1" xmlns="http://www.w3.org/2000/svg" xmlns:xlink="http://www.w3.org/1999/xlink" x="0px" y="0px"
	 viewBox="0 0 203 74.5" enable-background="new 0 0 203 74.5" xml:space="preserve">
<g>
	<path fill="#383838" d="M4.3,39.8c0-7.8,6.3-14,14-14c3.4,0,7.1,1.4,9.7,3.8c2.3,3-1.3,6-4.2,4c-1.5-1.3-3.6-2.1-5.5-2.1
		c-4.4,0-8.3,3.9-8.3,8.4c0,4.5,3.9,8.4,8.3,8.4c2.8,0,5.6-1.6,7.1-4c0.8-1.4,2.7-1.7,4-0.9c1.2,0.7,1.7,2.5,0.9,3.8
		c-2.6,4.2-7.2,6.8-12,6.8C10.8,53.8,4.3,47.6,4.3,39.8z"/>
</g>
<g>
	<path fill="#383838" d="M70.8,38.5c0-7.7,6.2-14,14-14c3,0,6,1.1,8.4,3V10.2c0-1.3,0.9-2.9,2.8-2.9c2,0,2.9,1.6,2.9,2.9v39
		c0,1.4-1.2,2.7-2.9,2.7c-1.7,0-2.6-1.1-2.8-2.2c-2.4,1.7-5.4,2.9-8.4,2.9C77,52.6,70.8,46.2,70.8,38.5z M76.4,38.5
		c0,4.6,3.7,8.4,8.4,8.4c4.5,0,8.4-3.7,8.4-8.4s-3.8-8.4-8.4-8.4C80.2,30.2,76.4,33.9,76.4,38.5z"/>
	<path fill="#383838" d="M132.6,38.6c0,1.4-1.4,2.9-2.9,2.9h-19c1.2,3,4.3,5.4,7.8,5.4c1.4,0,3-0.4,4.2-1.1c3.2-1.7,5.8,3,2.8,4.9
		c-2,1.2-4.6,1.9-7,1.9c-7.8,0-14-6.3-14-14c0-7.8,6.3-14,14-14C126.2,24.6,132.6,30.8,132.6,38.6z M126.5,35.7
		c-1.2-3.1-4.5-5.5-8-5.5c-3.6,0-6.8,2.3-7.8,5.5H126.5z"/>
	<path fill="#6DBE45" d="M143.2,7.5v38.1c0,2,1.7,3.6,3.6,3.6c2.3,0,2.2,3.4,0,3.4c-3.9,0-7-3.1-7-7V7.5c0-0.8,0.5-1.7,1.7-1.7
		C142.7,5.8,143.2,6.7,143.2,7.5z"/>
	<path fill="#6DBE45" d="M158.1,9.5c0,1.7-1.2,2.9-2.9,2.9c-1.4,0-2.8-1.2-2.8-2.9c0-1.5,1.4-2.9,2.8-2.9
		C156.8,6.6,158.1,8,158.1,9.5z M156.9,26.8v18.8c0,2,1.7,3.6,3.7,3.6c1,0,1.6,1,1.6,1.7c0,1-0.9,1.7-1.6,1.7c-4,0-7.1-3.1-7.1-7
		V26.8c0-0.9,0.8-1.6,1.7-1.6C156.3,25.2,156.9,26.1,156.9,26.8z"/>
	<path fill="#6DBE45" d="M169.9,7.5v38.1c0,2,1.7,3.6,3.6,3.6c2.3,0,2.2,3.4,0,3.4c-3.9,0-7-3.1-7-7V7.5c0-0.8,0.5-1.7,1.7-1.7
		C169.4,5.8,169.9,6.7,169.9,7.5z"/>
	<path fill="#6DBE45" d="M200.9,27.5l-17,40.3c-1,1.9-3.2,3.7-5.5,3.7c-1,0-1.7-0.7-1.7-1.7c0-1,0.6-1.7,1.7-1.7
		c0.9,0,1.9-0.8,2.4-1.7l6.6-15.6l-10.2-23.3c-0.3-0.9-0.1-1.9,0.9-2.3c0.8-0.3,1.9,0,2.2,1l8.9,20.2c3-6.7,5.8-13.5,8.7-20.2
		c0.4-1,1.2-1.3,2.2-1C200.8,25.6,201.3,26.6,200.9,27.5z"/>
</g>
<g>
	<g>
		<path fill="#373837" d="M70.8,54.6c-0.3-0.9-4.3-1.4-7.2-1.7c0,0,0,0,0.1,0c5.5-0.8,6.1-1,6.3-1.5l0.1-0.3l-0.2-0.2
			c-0.6-0.7-1.8-1.2-3.6-1.7c-0.3,0.3-0.5,0.5-0.8,0.8c1.5,0.3,2.6,0.7,3.2,1.1c-1.1,0.3-3.5,0.6-5.1,0.9c-3.4,0.5-3.6,0.6-3.8,0.8
			l-0.1,0.2l0,0.2c0.1,0.4,0.5,0.4,0.7,0.4c2.2,0.1,7.9,0.7,9.3,1.3c-1.3,0.9-7.7,3.2-16,3.4c-0.5,0-0.9,0-1.4,0
			c-10.5,0-19.6-2.9-19.6-4.7c0-1,1.9-2.1,5.1-2.9c-0.3-0.2-0.6-0.5-0.8-0.7c-3.1,0.9-5.1,2.1-5.1,3.7c0,3.1,11.3,5.6,20.6,5.6
			c0.5,0,1,0,1.4,0c8.7-0.2,16-2.8,16.9-4C70.8,54.9,70.8,54.7,70.8,54.6z"/>
	</g>
</g>
<g>
	<g>
		<path fill="#6DBE45" d="M37.7,41.5c-0.7-0.9-1-2.8,0.2-4c3.3-3.5,7.1-7.5,10.4-11c0.7-0.7,1.1,0.2,1.3,0.9
			c0.2,0.9,0.2,2.3-0.2,2.8l-9,9.5c3.1,3.4,5.6,6.1,8.7,9.4c0.4,0.4,0.8,1.7,0.5,2.9c-0.2,0.8-0.6,1.6-1.1,1.3L37.7,41.5z"/>
	</g>
	<g>
		<path fill="#6DBE45" d="M54,53.1c-0.5,0.3-0.9-0.5-1.1-1.3c-0.3-1.1,0.1-2.5,0.5-2.9c3.1-3.3,5.5-6,8.7-9.4l-9-9.5
			c-0.4-0.5-0.4-1.8-0.2-2.8c0.2-0.7,0.6-1.7,1.3-0.9c3.3,3.6,7,7.5,10.4,11c1.2,1.3,0.9,3.1,0.2,4L54,53.1z"/>
	</g>
</g>
</svg>
